<svg xmlns="http://www.w3.org/2000/svg" xmlns:xlink="http://www.w3.org/1999/xlink" viewBox="0 0 660 450"><defs><style>.cls-1{isolation:isolate;}.cls-102,.cls-103,.cls-104,.cls-105,.cls-106,.cls-108,.cls-117,.cls-119,.cls-2,.cls-4,.cls-73,.cls-81{mix-blend-mode:screen;}.cls-2{fill:url(#linear-gradient);}.cls-3{fill:url(#New_Gradient_Swatch_copy_7);}.cls-4{fill:url(#Radial_Gradient_1);}.cls-109,.cls-110,.cls-111,.cls-112,.cls-113,.cls-114,.cls-115,.cls-116,.cls-5,.cls-55,.cls-74{mix-blend-mode:color-dodge;}.cls-6{fill:url(#linear-gradient-2);}.cls-7{fill:url(#linear-gradient-3);}.cls-8{fill:url(#linear-gradient-4);}.cls-9{fill:url(#linear-gradient-5);}.cls-10{fill:url(#linear-gradient-6);}.cls-11{fill:url(#linear-gradient-7);}.cls-12{fill:url(#linear-gradient-8);}.cls-13{fill:url(#linear-gradient-9);}.cls-14{fill:url(#linear-gradient-10);}.cls-15{fill:url(#linear-gradient-11);}.cls-16{fill:url(#linear-gradient-12);}.cls-17{fill:url(#linear-gradient-13);}.cls-18{fill:url(#linear-gradient-14);}.cls-19{fill:url(#linear-gradient-15);}.cls-20{fill:url(#linear-gradient-16);}.cls-21{fill:url(#linear-gradient-17);}.cls-22{fill:url(#linear-gradient-18);}.cls-23{fill:url(#linear-gradient-19);}.cls-24{fill:url(#linear-gradient-20);}.cls-25{fill:url(#linear-gradient-21);}.cls-26{fill:url(#linear-gradient-22);}.cls-27{fill:url(#linear-gradient-23);}.cls-28{fill:url(#linear-gradient-24);}.cls-29{fill:url(#linear-gradient-25);}.cls-30{fill:url(#linear-gradient-26);}.cls-31{fill:url(#linear-gradient-27);}.cls-32{fill:url(#linear-gradient-28);}.cls-33{fill:url(#linear-gradient-29);}.cls-34{fill:url(#linear-gradient-30);}.cls-35{fill:url(#linear-gradient-31);}.cls-36{fill:url(#linear-gradient-32);}.cls-37{fill:url(#linear-gradient-33);}.cls-38{fill:url(#linear-gradient-34);}.cls-39{fill:url(#linear-gradient-35);}.cls-40{fill:url(#linear-gradient-36);}.cls-41{fill:url(#linear-gradient-37);}.cls-42{fill:url(#linear-gradient-38);}.cls-43{fill:url(#linear-gradient-39);}.cls-44{fill:url(#linear-gradient-40);}.cls-45{fill:url(#linear-gradient-41);}.cls-46{fill:url(#linear-gradient-42);}.cls-47{fill:url(#linear-gradient-43);}.cls-48{fill:url(#linear-gradient-44);}.cls-49{fill:url(#linear-gradient-45);}.cls-50{fill:url(#linear-gradient-46);}.cls-51{fill:url(#linear-gradient-47);}.cls-52{fill:url(#linear-gradient-48);}.cls-53{fill:url(#linear-gradient-49);}.cls-54{fill:#6b24d6;}.cls-109,.cls-55{opacity:0.8;}.cls-109,.cls-110,.cls-111,.cls-112,.cls-113,.cls-114,.cls-115,.cls-116,.cls-56{fill:#7c1dc9;}.cls-57,.cls-71{opacity:0.2;}.cls-58{opacity:0;}.cls-59{opacity:0.09;}.cls-60{opacity:0.18;}.cls-61{opacity:0.27;}.cls-62{opacity:0.36;}.cls-63{opacity:0.45;}.cls-64{opacity:0.55;}.cls-65{opacity:0.64;}.cls-66{opacity:0.73;}.cls-67{opacity:0.82;}.cls-68{opacity:0.91;}.cls-69{fill:url(#linear-gradient-50);}.cls-70{fill:url(#linear-gradient-51);}.cls-71{fill:url(#linear-gradient-52);}.cls-72{fill:url(#linear-gradient-53);}.cls-73{fill:url(#Radial_Gradient_1-2);}.cls-74{fill:url(#New_Gradient_Swatch_copy);}.cls-75{fill:url(#linear-gradient-54);}.cls-76{fill:url(#linear-gradient-55);}.cls-77{fill:url(#linear-gradient-56);}.cls-78{fill:url(#linear-gradient-57);}.cls-79{fill:url(#New_Gradient_Swatch_copy_38);}.cls-80{fill:url(#linear-gradient-58);}.cls-81{fill:url(#Radial_Gradient_1-3);}.cls-82{fill:url(#linear-gradient-59);}.cls-83{fill:url(#linear-gradient-60);}.cls-84{fill:url(#linear-gradient-61);}.cls-85{fill:url(#linear-gradient-62);}.cls-86{fill:url(#linear-gradient-63);}.cls-87{fill:url(#linear-gradient-64);}.cls-88{fill:url(#linear-gradient-65);}.cls-89{fill:url(#linear-gradient-66);}.cls-90{fill:url(#linear-gradient-67);}.cls-91{fill:#c7bcd6;}.cls-92{fill:url(#linear-gradient-68);}.cls-93{fill:url(#linear-gradient-69);}.cls-94{fill:url(#linear-gradient-70);}.cls-95{fill:url(#linear-gradient-71);}.cls-96{fill:url(#New_Gradient_Swatch_copy_7-2);}.cls-97{fill:url(#New_Gradient_Swatch_copy_7-3);}.cls-98{fill:url(#New_Gradient_Swatch_copy_9);}.cls-99{fill:url(#New_Gradient_Swatch_copy_9-2);}.cls-100{fill:#b086cc;}.cls-101{fill:url(#New_Gradient_Swatch_copy_8);}.cls-102{fill:url(#Radial_Gradient_1-4);}.cls-103{fill:url(#Radial_Gradient_1-5);}.cls-104{fill:url(#Radial_Gradient_1-6);}.cls-105{fill:url(#Radial_Gradient_1-7);}.cls-106{fill:url(#Radial_Gradient_1-8);}.cls-107{fill:#e0ecf7;}.cls-110{opacity:0.6;}.cls-111{opacity:0.4;}.cls-112{opacity:0.25;}.cls-113{opacity:0.15;}.cls-114{opacity:0.3;}.cls-115{opacity:0.5;}.cls-117{fill:url(#linear-gradient-72);}.cls-118{fill:url(#New_Gradient_Swatch_copy_8-2);}.cls-119{fill:url(#linear-gradient-73);}.cls-120{fill:url(#New_Gradient_Swatch_copy_9-3);}</style><linearGradient id="linear-gradient" x1="269.2" y1="72.28" x2="138.72" y2="72.28" gradientUnits="userSpaceOnUse"><stop offset="0" stop-color="#1bb0d4"/><stop offset="0.05" stop-color="#189dbd"/><stop offset="0.18" stop-color="#12738b"/><stop offset="0.31" stop-color="#0c5060"/><stop offset="0.45" stop-color="#08333e"/><stop offset="0.58" stop-color="#041d23"/><stop offset="0.72" stop-color="#020d0f"/><stop offset="0.85" stop-color="#000304"/><stop offset="1"/></linearGradient><linearGradient id="New_Gradient_Swatch_copy_7" x1="329.85" y1="218.54" x2="213.82" y2="16.78" gradientUnits="userSpaceOnUse"><stop offset="0.04" stop-color="#138bbd"/><stop offset="0.23" stop-color="#169ac7"/><stop offset="0.59" stop-color="#1fc3df"/><stop offset="1" stop-color="#2af6ff"/></linearGradient><radialGradient id="Radial_Gradient_1" cx="266.36" cy="108.14" r="68.85" gradientUnits="userSpaceOnUse"><stop offset="0" stop-color="#fff"/><stop offset="1"/></radialGradient><linearGradient id="linear-gradient-2" x1="246.78" y1="76.95" x2="255.3" y2="76.95" gradientUnits="userSpaceOnUse"><stop offset="0" stop-color="#fff"/><stop offset="0.94" stop-color="#9ec3e5"/></linearGradient><linearGradient id="linear-gradient-3" x1="241.86" y1="95.23" x2="250.34" y2="95.23" xlink:href="#linear-gradient-2"/><linearGradient id="linear-gradient-4" x1="240.42" y1="79.04" x2="249.89" y2="79.04" xlink:href="#linear-gradient-2"/><linearGradient id="linear-gradient-5" x1="239.94" y1="87.7" x2="244.75" y2="87.7" xlink:href="#linear-gradient-2"/><linearGradient id="linear-gradient-6" x1="224.83" y1="85.33" x2="232.66" y2="85.33" xlink:href="#linear-gradient-2"/><linearGradient id="linear-gradient-7" x1="247.27" y1="92.48" x2="253.98" y2="92.48" xlink:href="#linear-gradient-2"/><linearGradient id="linear-gradient-8" x1="244.33" y1="84.89" x2="248.32" y2="84.89" xlink:href="#linear-gradient-2"/><linearGradient id="linear-gradient-9" x1="257.82" y1="81.47" x2="259.99" y2="81.47" xlink:href="#linear-gradient-2"/><linearGradient id="linear-gradient-10" x1="233.71" y1="80.01" x2="241.81" y2="80.01" xlink:href="#linear-gradient-2"/><linearGradient id="linear-gradient-11" x1="252.4" y1="86.59" x2="264.36" y2="86.59" xlink:href="#linear-gradient-2"/><linearGradient id="linear-gradient-12" x1="227.28" y1="82.03" x2="237.46" y2="82.03" xlink:href="#linear-gradient-2"/><linearGradient id="linear-gradient-13" x1="229.72" y1="67.03" x2="237.69" y2="67.03" xlink:href="#linear-gradient-2"/><linearGradient id="linear-gradient-14" x1="240.21" y1="71.91" x2="244.26" y2="71.91" xlink:href="#linear-gradient-2"/><linearGradient id="linear-gradient-15" x1="235.17" y1="90.16" x2="239.38" y2="90.16" xlink:href="#linear-gradient-2"/><linearGradient id="linear-gradient-16" x1="262.12" y1="102.28" x2="272.99" y2="102.28" xlink:href="#linear-gradient-2"/><linearGradient id="linear-gradient-17" x1="218.47" y1="80.59" x2="222.31" y2="80.59" xlink:href="#linear-gradient-2"/><linearGradient id="linear-gradient-18" x1="210.61" y1="59.04" x2="227.7" y2="59.04" xlink:href="#linear-gradient-2"/><linearGradient id="linear-gradient-19" x1="264.64" y1="96.51" x2="268.66" y2="96.51" xlink:href="#linear-gradient-2"/><linearGradient id="linear-gradient-20" x1="266.87" y1="96.84" x2="285.64" y2="96.84" xlink:href="#linear-gradient-2"/><linearGradient id="linear-gradient-21" x1="250.83" y1="90.68" x2="262.16" y2="90.68" xlink:href="#linear-gradient-2"/><linearGradient id="linear-gradient-22" x1="262.5" y1="86.12" x2="271.52" y2="86.12" xlink:href="#linear-gradient-2"/><linearGradient id="linear-gradient-23" x1="218.47" y1="76.01" x2="224.76" y2="76.01" xlink:href="#linear-gradient-2"/><linearGradient id="linear-gradient-24" x1="256.49" y1="96.78" x2="259.64" y2="96.78" xlink:href="#linear-gradient-2"/><linearGradient id="linear-gradient-25" x1="218.47" y1="72.64" x2="231.19" y2="72.64" xlink:href="#linear-gradient-2"/><linearGradient id="linear-gradient-26" x1="252.68" y1="106.97" x2="262.89" y2="106.97" xlink:href="#linear-gradient-2"/><linearGradient id="linear-gradient-27" x1="218.47" y1="69.35" x2="237.9" y2="69.35" xlink:href="#linear-gradient-2"/><linearGradient id="linear-gradient-28" x1="241.86" y1="116.02" x2="250.34" y2="116.02" xlink:href="#linear-gradient-2"/><linearGradient id="linear-gradient-29" x1="240.42" y1="99.83" x2="249.89" y2="99.83" xlink:href="#linear-gradient-2"/><linearGradient id="linear-gradient-30" x1="239.94" y1="108.49" x2="244.75" y2="108.49" xlink:href="#linear-gradient-2"/><linearGradient id="linear-gradient-31" x1="224.83" y1="106.12" x2="232.66" y2="106.12" xlink:href="#linear-gradient-2"/><linearGradient id="linear-gradient-32" x1="247.27" y1="113.27" x2="253.98" y2="113.27" xlink:href="#linear-gradient-2"/><linearGradient id="linear-gradient-33" x1="244.33" y1="105.68" x2="248.32" y2="105.68" xlink:href="#linear-gradient-2"/><linearGradient id="linear-gradient-34" x1="233.71" y1="100.8" x2="241.81" y2="100.8" xlink:href="#linear-gradient-2"/><linearGradient id="linear-gradient-35" x1="227.28" y1="102.82" x2="237.46" y2="102.82" xlink:href="#linear-gradient-2"/><linearGradient id="linear-gradient-36" x1="235.17" y1="110.95" x2="239.38" y2="110.95" xlink:href="#linear-gradient-2"/><linearGradient id="linear-gradient-37" x1="262.12" y1="123.08" x2="272.99" y2="123.08" xlink:href="#linear-gradient-2"/><linearGradient id="linear-gradient-38" x1="218.47" y1="101.38" x2="222.31" y2="101.38" xlink:href="#linear-gradient-2"/><linearGradient id="linear-gradient-39" x1="264.64" y1="117.3" x2="268.66" y2="117.3" xlink:href="#linear-gradient-2"/><linearGradient id="linear-gradient-40" x1="250.83" y1="111.47" x2="262.16" y2="111.47" xlink:href="#linear-gradient-2"/><linearGradient id="linear-gradient-41" x1="218.47" y1="96.8" x2="224.76" y2="96.8" xlink:href="#linear-gradient-2"/><linearGradient id="linear-gradient-42" x1="256.49" y1="117.57" x2="259.64" y2="117.57" xlink:href="#linear-gradient-2"/><linearGradient id="linear-gradient-43" x1="218.47" y1="93.44" x2="231.19" y2="93.44" xlink:href="#linear-gradient-2"/><linearGradient id="linear-gradient-44" x1="238.56" y1="117.88" x2="242.55" y2="117.88" xlink:href="#linear-gradient-2"/><linearGradient id="linear-gradient-45" x1="227.94" y1="113" x2="236.05" y2="113" xlink:href="#linear-gradient-2"/><linearGradient id="linear-gradient-46" x1="258.87" y1="129.5" x2="262.89" y2="129.5" xlink:href="#linear-gradient-2"/><linearGradient id="linear-gradient-47" x1="245.06" y1="123.67" x2="256.39" y2="123.67" xlink:href="#linear-gradient-2"/><linearGradient id="linear-gradient-48" x1="212.7" y1="105.63" x2="225.42" y2="105.63" xlink:href="#linear-gradient-2"/><linearGradient id="linear-gradient-49" x1="218.47" y1="90.14" x2="237.9" y2="90.14" xlink:href="#linear-gradient-2"/><linearGradient id="linear-gradient-50" x1="159.1" y1="293.91" x2="521.7" y2="293.91" gradientUnits="userSpaceOnUse"><stop offset="0.06" stop-color="#200041"/><stop offset="0.26" stop-color="#210243"/><stop offset="0.36" stop-color="#25084b"/><stop offset="0.43" stop-color="#2c1358"/><stop offset="0.47" stop-color="#311b61"/><stop offset="0.48" stop-color="#351f65"/><stop offset="0.5" stop-color="#422c73"/><stop offset="0.51" stop-color="#584188"/><stop offset="0.52" stop-color="#765fa7"/><stop offset="0.53" stop-color="#8770b8"/><stop offset="0.54" stop-color="#7e67ae"/><stop offset="0.56" stop-color="#5c468d"/><stop offset="0.59" stop-color="#442e75"/><stop offset="0.61" stop-color="#362066"/><stop offset="0.63" stop-color="#311b61"/><stop offset="0.67" stop-color="#2a1155"/><stop offset="0.75" stop-color="#230446"/><stop offset="0.81" stop-color="#200041"/><stop offset="1" stop-color="#200041"/></linearGradient><linearGradient id="linear-gradient-51" x1="139.73" y1="284.41" x2="488.57" y2="284.41" gradientUnits="userSpaceOnUse"><stop offset="0" stop-color="#311b61"/><stop offset="0.2" stop-color="#290f52"/><stop offset="0.49" stop-color="#200041"/><stop offset="1" stop-color="#0f001f"/></linearGradient><linearGradient id="linear-gradient-52" x1="161.53" y1="342.45" x2="524.13" y2="342.45" xlink:href="#linear-gradient-50"/><linearGradient id="linear-gradient-53" x1="143.63" y1="284.41" x2="484.66" y2="284.41" gradientUnits="userSpaceOnUse"><stop offset="0" stop-color="#3d065f"/><stop offset="1" stop-color="#5f27bd"/></linearGradient><radialGradient id="Radial_Gradient_1-2" cx="327.74" cy="346.31" r="130.91" xlink:href="#Radial_Gradient_1"/><radialGradient id="New_Gradient_Swatch_copy" cx="1283.34" cy="-2008.5" r="48.76" gradientTransform="matrix(1, 0, 0, 0.59, -998.02, 1423.6)" gradientUnits="userSpaceOnUse"><stop offset="0" stop-color="#972a74"/><stop offset="0.04" stop-color="#8a266a"/><stop offset="0.19" stop-color="#601b4a"/><stop offset="0.35" stop-color="#3d112f"/><stop offset="0.51" stop-color="#230a1b"/><stop offset="0.67" stop-color="#0f040c"/><stop offset="0.83" stop-color="#040103"/><stop offset="1"/></radialGradient><linearGradient id="linear-gradient-54" x1="-379.24" y1="563.34" x2="-486.83" y2="482.01" gradientTransform="matrix(0.87, 0.5, -1.5, 0.29, 1448.71, 356.84)" gradientUnits="userSpaceOnUse"><stop offset="0" stop-color="#3d065f"/><stop offset="1" stop-color="#260556"/></linearGradient><linearGradient id="linear-gradient-55" x1="5503.41" y1="-46.02" x2="5140.51" y2="269.2" gradientTransform="matrix(-1, 0, 0, 1, 5661.35, 0)" gradientUnits="userSpaceOnUse"><stop offset="0.19" stop-color="#3d065f"/><stop offset="0.93" stop-color="#3d065f"/></linearGradient><linearGradient id="linear-gradient-56" x1="5499.58" y1="-42.69" x2="5142.77" y2="267.23" gradientTransform="matrix(-1, 0, 0, 1, 5661.35, 0)" xlink:href="#linear-gradient-51"/><linearGradient id="linear-gradient-57" x1="223.66" y1="-39.2" x2="568.47" y2="366.5" gradientUnits="userSpaceOnUse"><stop offset="0.01" stop-color="#2af6ff"/><stop offset="0.06" stop-color="#3ec0f2"/><stop offset="0.11" stop-color="#518fe5"/><stop offset="0.16" stop-color="#6066db"/><stop offset="0.21" stop-color="#6c46d3"/><stop offset="0.26" stop-color="#752fce"/><stop offset="0.3" stop-color="#7a22ca"/><stop offset="0.34" stop-color="#7c1dc9"/><stop offset="0.49" stop-color="#5e1699"/><stop offset="0.74" stop-color="#300b4e"/><stop offset="0.91" stop-color="#13051f"/><stop offset="1" stop-color="#08020d"/></linearGradient><linearGradient id="New_Gradient_Swatch_copy_38" x1="253.08" y1="-4.91" x2="504.62" y2="291.65" gradientUnits="userSpaceOnUse"><stop offset="0" stop-color="#7c1dc9"/><stop offset="0.03" stop-color="#741bbd"/><stop offset="0.16" stop-color="#56148b"/><stop offset="0.3" stop-color="#3b0e60"/><stop offset="0.43" stop-color="#26093e"/><stop offset="0.57" stop-color="#150523"/><stop offset="0.71" stop-color="#09020f"/><stop offset="0.85" stop-color="#020104"/><stop offset="1"/></linearGradient><linearGradient id="linear-gradient-58" x1="1525.38" y1="306.14" x2="1346.99" y2="21.1" gradientTransform="translate(-985.58)" xlink:href="#linear-gradient-50"/><radialGradient id="Radial_Gradient_1-3" cx="1474.48" cy="131.02" r="30.32" gradientTransform="translate(-985.58)" xlink:href="#Radial_Gradient_1"/><linearGradient id="linear-gradient-59" x1="386.84" y1="213.84" x2="324.46" y2="281.75" gradientUnits="userSpaceOnUse"><stop offset="0" stop-color="#3d065f"/><stop offset="1" stop-color="#12054e"/><stop offset="1" stop-color="#10054d"/></linearGradient><linearGradient id="linear-gradient-60" x1="304.66" y1="231.9" x2="304.66" y2="259.66" gradientUnits="userSpaceOnUse"><stop offset="0" stop-color="#3d065f"/><stop offset="1" stop-color="#521b9a"/></linearGradient><linearGradient id="linear-gradient-61" x1="322.64" y1="212.87" x2="300.11" y2="240.41" gradientUnits="userSpaceOnUse"><stop offset="0" stop-color="#3d065f"/><stop offset="0.77" stop-color="#5e26ba"/><stop offset="1" stop-color="#6f2bcf"/></linearGradient><linearGradient id="linear-gradient-62" x1="326.08" y1="243.74" x2="326.08" y2="273.91" xlink:href="#linear-gradient-60"/><linearGradient id="linear-gradient-63" x1="344.06" y1="224.7" x2="321.53" y2="252.24" xlink:href="#linear-gradient-61"/><linearGradient id="linear-gradient-64" x1="347.5" y1="257.3" x2="347.5" y2="281.21" xlink:href="#linear-gradient-60"/><linearGradient id="linear-gradient-65" x1="365.48" y1="236.52" x2="342.95" y2="264.06" xlink:href="#linear-gradient-61"/><linearGradient id="linear-gradient-66" x1="368.92" y1="269.25" x2="368.92" y2="290.51" xlink:href="#linear-gradient-60"/><linearGradient id="linear-gradient-67" x1="386.9" y1="248.34" x2="364.37" y2="275.88" xlink:href="#linear-gradient-61"/><linearGradient id="linear-gradient-68" x1="315.17" y1="269.47" x2="308.74" y2="302.68" xlink:href="#linear-gradient-60"/><linearGradient id="linear-gradient-69" x1="343.37" y1="230.08" x2="308.12" y2="273.16" xlink:href="#linear-gradient-61"/><linearGradient id="linear-gradient-70" x1="379.21" y1="293.89" x2="383.11" y2="318.03" xlink:href="#linear-gradient-60"/><linearGradient id="linear-gradient-71" x1="418.64" y1="240.06" x2="369.09" y2="300.61" xlink:href="#linear-gradient-61"/><linearGradient id="New_Gradient_Swatch_copy_7-2" x1="463.94" y1="238.16" x2="385.34" y2="138.87" xlink:href="#New_Gradient_Swatch_copy_7"/><linearGradient id="New_Gradient_Swatch_copy_7-3" x1="339.03" y1="177.91" x2="292.83" y2="97.58" xlink:href="#New_Gradient_Swatch_copy_7"/><linearGradient id="New_Gradient_Swatch_copy_9" x1="393.62" y1="113.76" x2="375.7" y2="61.35" gradientUnits="userSpaceOnUse"><stop offset="0.04" stop-color="#9f19ab"/><stop offset="0.24" stop-color="#ae25b1"/><stop offset="0.65" stop-color="#d744bf"/><stop offset="1" stop-color="#ff63ce"/></linearGradient><linearGradient id="New_Gradient_Swatch_copy_9-2" x1="393.73" y1="231.96" x2="365.46" y2="183" xlink:href="#New_Gradient_Swatch_copy_9"/><linearGradient id="New_Gradient_Swatch_copy_8" x1="403.49" y1="169.87" x2="371.42" y2="116.44" gradientUnits="userSpaceOnUse"><stop offset="0.04" stop-color="#ffa98c"/><stop offset="0.32" stop-color="#ffb892"/><stop offset="0.86" stop-color="#fee1a3"/><stop offset="1" stop-color="#feeca8"/></linearGradient><radialGradient id="Radial_Gradient_1-4" cx="437.77" cy="205.1" r="27.41" xlink:href="#Radial_Gradient_1"/><radialGradient id="Radial_Gradient_1-5" cx="313.75" cy="133.95" r="27.41" xlink:href="#Radial_Gradient_1"/><radialGradient id="Radial_Gradient_1-6" cx="386.34" cy="90.28" r="24.67" xlink:href="#Radial_Gradient_1"/><radialGradient id="Radial_Gradient_1-7" cx="384.1" cy="213.85" r="24.67" xlink:href="#Radial_Gradient_1"/><radialGradient id="Radial_Gradient_1-8" cx="384.73" cy="135.48" r="22.76" xlink:href="#Radial_Gradient_1"/><linearGradient id="linear-gradient-72" x1="10289.39" y1="6073.96" x2="10231.83" y2="6073.96" gradientTransform="translate(10811.62 6268.17) rotate(180)" gradientUnits="userSpaceOnUse"><stop offset="0" stop-color="#ffe4a7"/><stop offset="0.02" stop-color="#f7dda2"/><stop offset="0.13" stop-color="#beaa7c"/><stop offset="0.25" stop-color="#8b7c5b"/><stop offset="0.37" stop-color="#60563f"/><stop offset="0.49" stop-color="#3e3728"/><stop offset="0.62" stop-color="#231f17"/><stop offset="0.74" stop-color="#0f0e0a"/><stop offset="0.87" stop-color="#040302"/><stop offset="1"/></linearGradient><linearGradient id="New_Gradient_Swatch_copy_8-2" x1="547.92" y1="199.66" x2="527.59" y2="165.77" xlink:href="#New_Gradient_Swatch_copy_8"/><linearGradient id="linear-gradient-73" x1="10296.97" y1="6129.32" x2="10239.42" y2="6129.32" gradientTransform="translate(10811.62 6268.17) rotate(180)" gradientUnits="userSpaceOnUse"><stop offset="0" stop-color="#c211a1"/><stop offset="0.01" stop-color="#bd119d"/><stop offset="0.15" stop-color="#8b0c73"/><stop offset="0.29" stop-color="#600850"/><stop offset="0.42" stop-color="#3e0533"/><stop offset="0.56" stop-color="#23031d"/><stop offset="0.7" stop-color="#0f010d"/><stop offset="0.85" stop-color="#040003"/><stop offset="1"/></linearGradient><linearGradient id="New_Gradient_Swatch_copy_9-3" x1="524.55" y1="134.8" x2="512.41" y2="99.3" xlink:href="#New_Gradient_Swatch_copy_9"/></defs><title>header-img1</title><g class="cls-1"><g id="Layer_1" data-name="Layer 1"><polygon class="cls-2" points="269.2 144.57 138.72 69.23 138.72 0 269.2 75.34 269.2 144.57"/><polygon class="cls-3" points="331.6 180.42 201.12 105.08 201.12 35.85 331.6 111.19 331.6 180.42"/><polygon class="cls-4" points="201.12 35.85 201.12 38.59 329.87 112.92 329.87 179.42 331.61 180.42 331.61 111.19 201.12 35.85"/><g class="cls-5"><polygon class="cls-6" points="246.78 75.77 255.31 80.65 255.31 78.14 246.78 73.25 246.78 75.77"/><polygon class="cls-7" points="250.34 96.42 241.86 91.52 241.86 94.04 250.34 98.94 250.34 96.42"/><polygon class="cls-8" points="249.89 82.98 249.89 80.46 240.42 75.09 240.42 77.61 249.89 82.98"/><polygon class="cls-9" points="239.94 85.05 239.94 87.57 244.75 90.35 244.75 87.83 239.94 85.05"/><polygon class="cls-10" points="232.66 88.81 232.66 86.29 224.83 81.86 224.83 84.38 232.66 88.81"/><polygon class="cls-11" points="253.98 93.16 247.27 89.28 247.27 91.8 253.98 95.68 253.98 93.16"/><polygon class="cls-12" points="244.33 82.49 244.33 85.01 248.31 87.28 248.31 84.76 244.33 82.49"/><polygon class="cls-13" points="257.82 79.58 257.82 82.09 259.99 83.35 259.99 80.84 257.82 79.58"/><polygon class="cls-14" points="241.81 83.58 241.81 81.06 233.71 76.44 233.71 78.96 241.81 83.58"/><polygon class="cls-15" points="252.4 81.91 252.4 84.42 264.36 91.27 264.36 88.75 252.4 81.91"/><polygon class="cls-16" points="237.46 86.14 237.46 83.62 227.28 77.92 227.28 80.44 237.46 86.14"/><polygon class="cls-17" points="229.72 63.49 229.72 66.01 237.69 70.57 237.69 68.05 229.72 63.49"/><polygon class="cls-18" points="244.26 71.81 240.21 69.49 240.21 72.01 244.26 74.33 244.26 71.81"/><polygon class="cls-19" points="239.38 90.09 235.17 87.71 235.17 90.23 239.38 92.61 239.38 90.09"/><polygon class="cls-20" points="262.12 100.38 272.99 106.7 272.99 104.18 262.12 97.87 262.12 100.38"/><polygon class="cls-21" points="222.31 80.44 218.47 78.22 218.47 80.74 222.31 82.95 222.31 80.44"/><polygon class="cls-22" points="210.6 52.91 210.6 55.43 227.69 65.17 227.69 62.65 210.6 52.91"/><polygon class="cls-23" points="264.64 96.6 268.65 98.94 268.65 96.42 264.64 94.08 264.64 96.6"/><polygon class="cls-24" points="266.87 92.71 285.64 103.48 285.64 100.97 266.87 90.19 266.87 92.71"/><polygon class="cls-25" points="250.83 88.72 262.16 95.17 262.16 92.65 250.83 86.2 250.83 88.72"/><polygon class="cls-26" points="262.5 82.28 262.5 84.8 271.52 89.96 271.52 87.44 262.5 82.28"/><polygon class="cls-27" points="224.76 76.51 218.47 72.99 218.47 75.51 224.76 79.03 224.76 76.51"/><polygon class="cls-28" points="259.64 96.43 256.49 94.61 256.49 97.13 259.64 98.95 259.64 96.43"/><polygon class="cls-29" points="231.19 75.01 218.47 67.76 218.47 70.28 231.19 77.53 231.19 75.01"/><polygon class="cls-30" points="252.68 105.32 262.89 111.14 262.89 108.62 252.68 102.8 252.68 105.32"/><polygon class="cls-31" points="237.9 73.65 218.47 62.53 218.47 65.05 237.9 76.17 237.9 73.65"/></g><g class="cls-5"><polygon class="cls-32" points="250.34 117.21 241.86 112.31 241.86 114.83 250.34 119.73 250.34 117.21"/><polygon class="cls-33" points="249.89 103.77 249.89 101.26 240.42 95.89 240.42 98.4 249.89 103.77"/><polygon class="cls-34" points="239.94 105.84 239.94 108.36 244.75 111.14 244.75 108.62 239.94 105.84"/><polygon class="cls-35" points="232.66 109.6 232.66 107.08 224.83 102.65 224.83 105.17 232.66 109.6"/><polygon class="cls-36" points="253.98 113.95 247.27 110.08 247.27 112.59 253.98 116.47 253.98 113.95"/><polygon class="cls-37" points="244.33 103.29 244.33 105.8 248.31 108.07 248.31 105.56 244.33 103.29"/><polygon class="cls-38" points="241.81 104.37 241.81 101.85 233.71 97.23 233.71 99.75 241.81 104.37"/><polygon class="cls-39" points="237.46 106.93 237.46 104.41 227.28 98.72 227.28 101.23 237.46 106.93"/><polygon class="cls-40" points="239.38 110.88 235.17 108.5 235.17 111.02 239.38 113.4 239.38 110.88"/><polygon class="cls-41" points="262.12 121.18 272.99 127.49 272.99 124.97 262.12 118.66 262.12 121.18"/><polygon class="cls-42" points="222.31 101.23 218.47 99.02 218.47 101.54 222.31 103.75 222.31 101.23"/><polygon class="cls-43" points="264.64 117.39 268.65 119.73 268.65 117.22 264.64 114.87 264.64 117.39"/><polygon class="cls-44" points="250.83 109.51 262.16 115.96 262.16 113.44 250.83 106.99 250.83 109.51"/><polygon class="cls-45" points="224.76 97.31 218.47 93.78 218.47 96.3 224.76 99.82 224.76 97.31"/><polygon class="cls-46" points="259.64 117.23 256.49 115.4 256.49 117.92 259.64 119.75 259.64 117.23"/><polygon class="cls-47" points="231.19 95.8 218.47 88.55 218.47 91.07 231.19 98.32 231.19 95.8"/><polygon class="cls-48" points="238.56 115.48 238.56 118 242.55 120.27 242.55 117.75 238.56 115.48"/><polygon class="cls-49" points="236.05 116.57 236.05 114.05 227.94 109.43 227.94 111.95 236.05 116.57"/><polygon class="cls-50" points="258.87 129.59 262.89 131.93 262.89 129.41 258.87 127.07 258.87 129.59"/><polygon class="cls-51" points="245.06 121.7 256.39 128.16 256.39 125.64 245.06 119.19 245.06 121.7"/><polygon class="cls-52" points="225.42 108 212.7 100.75 212.7 103.27 225.42 110.52 225.42 108"/><polygon class="cls-53" points="237.9 94.44 218.47 83.32 218.47 85.84 237.9 96.96 237.9 94.44"/></g><g class="cls-5"><path class="cls-54" d="M356.84,450a25.41,25.41,0,0,1-3.12-.26.61.61,0,0,1-.52-.7.63.63,0,0,1,.7-.52,22.86,22.86,0,0,0,3,.24.62.62,0,0,1,0,1.24Z"/><path class="cls-54" d="M359.29,449.31a.62.62,0,0,1,.55-.68,18,18,0,0,0,2.89-.58.63.63,0,0,1,.77.42.63.63,0,0,1-.42.77,18.5,18.5,0,0,1-3.1.61h-.07A.63.63,0,0,1,359.29,449.31Z"/><path class="cls-54" d="M350.65,449.09a21.13,21.13,0,0,1-3-1.06.61.61,0,0,1-.31-.81.62.62,0,0,1,.82-.32,19.53,19.53,0,0,0,2.79,1,.62.62,0,0,1-.17,1.22Z"/><path class="cls-54" d="M365.21,447.76a.63.63,0,0,1,.26-.85l2.64-1.53a.62.62,0,0,1,.85.23.61.61,0,0,1-.23.84L366.08,448l-.36-.51.31.54a.63.63,0,0,1-.29.08A.62.62,0,0,1,365.21,447.76Z"/><path class="cls-54" d="M344.94,446.56,342.29,445a.62.62,0,0,1,.62-1.07l2.65,1.53a.61.61,0,0,1,.23.84.63.63,0,0,1-.54.31A.71.71,0,0,1,344.94,446.56Z"/><path class="cls-54" d="M370.54,444.69a.61.61,0,0,1,.22-.84l2.65-1.53a.62.62,0,0,1,.62,1.07l-2.65,1.53a.6.6,0,0,1-.31.08A.6.6,0,0,1,370.54,444.69Z"/><path class="cls-54" d="M339.65,443.5,337,442a.61.61,0,0,1-.23-.84.62.62,0,0,1,.85-.23l2.64,1.53a.61.61,0,0,1-.3,1.15A.55.55,0,0,1,339.65,443.5Z"/><path class="cls-54" d="M375.83,441.64a.62.62,0,0,1,.23-.85l2.64-1.53a.62.62,0,0,1,.85.23.61.61,0,0,1-.23.84l-2.65,1.53a.55.55,0,0,1-.3.09A.63.63,0,0,1,375.83,441.64Z"/><path class="cls-54" d="M334.35,440.44l-2.65-1.53a.62.62,0,0,1-.22-.84.61.61,0,0,1,.84-.22l2.65,1.52a.63.63,0,0,1,.22.85.6.6,0,0,1-.53.31A.59.59,0,0,1,334.35,440.44Z"/><path class="cls-54" d="M381.13,438.58a.63.63,0,0,1,.22-.85l2.65-1.52a.62.62,0,0,1,.62,1.07L382,438.8a.59.59,0,0,1-.31.09A.6.6,0,0,1,381.13,438.58Z"/><path class="cls-54" d="M329.05,437.39l-2.64-1.53a.62.62,0,0,1-.23-.85.61.61,0,0,1,.84-.22l2.65,1.53a.61.61,0,0,1,.23.84.62.62,0,0,1-.54.31A.71.71,0,0,1,329.05,437.39Z"/><path class="cls-54" d="M386.42,435.52a.61.61,0,0,1,.23-.84l2.65-1.53a.62.62,0,0,1,.84.22.63.63,0,0,1-.22.85l-2.65,1.53a.71.71,0,0,1-.31.08A.62.62,0,0,1,386.42,435.52Z"/><path class="cls-54" d="M323.76,434.33l-2.65-1.53a.61.61,0,0,1-.23-.84.62.62,0,0,1,.85-.23l2.64,1.53a.61.61,0,0,1,.23.84.6.6,0,0,1-.53.31A.65.65,0,0,1,323.76,434.33Z"/><path class="cls-54" d="M391.72,432.46a.61.61,0,0,1,.23-.84l2.64-1.53a.62.62,0,0,1,.85.23.61.61,0,0,1-.23.84l-2.65,1.53a.55.55,0,0,1-.31.08A.62.62,0,0,1,391.72,432.46Z"/><path class="cls-54" d="M318.46,431.27l-2.65-1.53a.62.62,0,0,1,.62-1.07l2.65,1.53a.62.62,0,0,1-.31,1.15A.6.6,0,0,1,318.46,431.27Z"/><path class="cls-54" d="M397,429.4a.62.62,0,0,1,.22-.84l2.65-1.53a.62.62,0,0,1,.62,1.07l-2.65,1.53a.58.58,0,0,1-.31.08A.6.6,0,0,1,397,429.4Z"/><path class="cls-54" d="M313.17,428.21l-2.65-1.53a.62.62,0,0,1,.61-1.07l2.65,1.53a.62.62,0,0,1-.31,1.16A.55.55,0,0,1,313.17,428.21Z"/><path class="cls-54" d="M405.75,386.43l-2.64-1.53a.62.62,0,1,1,.61-1.07l2.65,1.53a.61.61,0,0,1,.23.84.62.62,0,0,1-.54.31A.71.71,0,0,1,405.75,386.43Z"/><path class="cls-54" d="M400.46,383.37l-2.65-1.53a.62.62,0,0,1,.62-1.07l2.65,1.53a.62.62,0,0,1,.22.84.6.6,0,0,1-.53.31A.68.68,0,0,1,400.46,383.37Z"/><path class="cls-54" d="M395.16,380.31l-2.64-1.53a.62.62,0,0,1,.61-1.07l2.65,1.53a.61.61,0,0,1,.23.84.63.63,0,0,1-.54.31A.6.6,0,0,1,395.16,380.31Z"/><path class="cls-54" d="M194.88,225.74l-2.65-1.53a.61.61,0,0,1-.23-.84.62.62,0,0,1,.85-.23l2.65,1.53a.62.62,0,0,1-.31,1.16A.59.59,0,0,1,194.88,225.74Z"/><path class="cls-54" d="M189.58,222.68l-2.65-1.52a.63.63,0,0,1-.22-.85.61.61,0,0,1,.84-.22l2.65,1.52a.62.62,0,0,1,.23.85.63.63,0,0,1-.54.31A.61.61,0,0,1,189.58,222.68Z"/><path class="cls-54" d="M184.29,219.63l-2.65-1.53a.62.62,0,1,1,.62-1.07l2.64,1.53a.61.61,0,0,1,.23.84.62.62,0,0,1-.54.31A.64.64,0,0,1,184.29,219.63Z"/><path class="cls-54" d="M402.31,426.35a.62.62,0,0,1,.23-.85l2.65-1.53a.62.62,0,0,1,.84.23.61.61,0,0,1-.23.84l-2.64,1.53a.61.61,0,0,1-.31.09A.64.64,0,0,1,402.31,426.35Z"/><path class="cls-54" d="M102.37,224.78a.61.61,0,0,1,.23-.84l2.65-1.53a.62.62,0,0,1,.84.22.61.61,0,0,1-.23.84L103.22,225a.61.61,0,0,1-.31.09A.63.63,0,0,1,102.37,224.78Z"/><path class="cls-54" d="M107.67,221.72a.62.62,0,0,1,.22-.84l2.65-1.53a.62.62,0,1,1,.62,1.07L108.51,222a.68.68,0,0,1-.31.08A.6.6,0,0,1,107.67,221.72Z"/><path class="cls-54" d="M113,218.66a.61.61,0,0,1,.22-.84l2.65-1.53a.62.62,0,0,1,.62,1.07l-2.65,1.53a.71.71,0,0,1-.31.08A.6.6,0,0,1,113,218.66Z"/><path class="cls-54" d="M466,386.82a.63.63,0,0,1,.22-.85l2.65-1.53a.64.64,0,0,1,.85.23.61.61,0,0,1-.23.84L466.81,387a.59.59,0,0,1-.31.09A.63.63,0,0,1,466,386.82Z"/><path class="cls-54" d="M471.26,383.76a.61.61,0,0,1,.23-.84l2.65-1.53a.62.62,0,0,1,.84.22.63.63,0,0,1-.22.85L472.11,384a.61.61,0,0,1-.31.09A.63.63,0,0,1,471.26,383.76Z"/><path class="cls-54" d="M476.56,380.7a.61.61,0,0,1,.23-.84l2.64-1.53a.62.62,0,1,1,.62,1.07l-2.65,1.53a.65.65,0,0,1-.31.08A.6.6,0,0,1,476.56,380.7Z"/><path class="cls-54" d="M232.32,341.85a.61.61,0,0,1,.22-.84l2.65-1.53a.62.62,0,0,1,.62,1.07l-2.65,1.53a.6.6,0,0,1-.31.08A.6.6,0,0,1,232.32,341.85Z"/><path class="cls-54" d="M237.61,338.8a.62.62,0,0,1,.23-.85l2.64-1.53a.64.64,0,0,1,.85.23.61.61,0,0,1-.23.84L238.45,339a.55.55,0,0,1-.3.09A.63.63,0,0,1,237.61,338.8Z"/><path class="cls-54" d="M242.91,335.74a.62.62,0,0,1,.22-.84l2.65-1.53a.62.62,0,0,1,.62,1.07L243.75,336a.59.59,0,0,1-.31.09A.6.6,0,0,1,242.91,335.74Z"/><path class="cls-54" d="M243.61,191.55,241,190a.61.61,0,0,1-.23-.84.6.6,0,0,1,.84-.22l2.65,1.52a.62.62,0,0,1,.23.85.64.64,0,0,1-.54.31A.61.61,0,0,1,243.61,191.55Zm-5.29-3.06L235.67,187a.62.62,0,0,1-.22-.85.61.61,0,0,1,.84-.22l2.65,1.53a.62.62,0,0,1,.22.84.6.6,0,0,1-.53.31A.59.59,0,0,1,238.32,188.49Zm-5.3-3.05-2.65-1.53a.63.63,0,0,1-.22-.85.61.61,0,0,1,.84-.22l2.65,1.53a.61.61,0,0,1,.23.84.63.63,0,0,1-.54.31A.71.71,0,0,1,233,185.44Zm-5.29-3.06-2.65-1.53a.61.61,0,0,1-.23-.84.62.62,0,0,1,.85-.23l2.64,1.53a.61.61,0,0,1,.23.84.6.6,0,0,1-.53.31A.55.55,0,0,1,227.73,182.38Zm-5.3-3.06-2.65-1.53a.62.62,0,0,1,.62-1.07l2.65,1.53a.63.63,0,0,1,.22.85.62.62,0,0,1-.53.3A.58.58,0,0,1,222.43,179.32Zm-47.18-1.64a.62.62,0,0,1,.23-.85l2.65-1.52a.61.61,0,1,1,.61,1.06l-2.64,1.53a.61.61,0,0,1-.31.09A.66.66,0,0,1,175.25,177.68Zm41.88-1.42-2.64-1.53a.61.61,0,0,1-.23-.84.6.6,0,0,1,.84-.22l2.65,1.53a.61.61,0,0,1,.23.84.62.62,0,0,1-.54.31A.61.61,0,0,1,217.13,176.26Zm-36.58-1.64a.61.61,0,0,1,.23-.84l2.64-1.53a.63.63,0,0,1,.85.22.62.62,0,0,1-.23.85l-2.65,1.53a.65.65,0,0,1-.31.08A.6.6,0,0,1,180.55,174.62Zm31.29-1.41-2.65-1.53a.62.62,0,1,1,.62-1.07l2.65,1.53a.62.62,0,0,1,.22.84.6.6,0,0,1-.53.31A.68.68,0,0,1,211.84,173.21Zm63.58,36.72-2.64-1.53a.62.62,0,0,1,.61-1.07l2.65,1.53a.61.61,0,0,1,.23.84.62.62,0,0,1-.54.31A.71.71,0,0,1,275.42,209.93Zm-5.29-3.06-2.65-1.53a.62.62,0,1,1,.62-1.07l2.65,1.53a.62.62,0,0,1,.22.84.6.6,0,0,1-.53.31A.58.58,0,0,1,270.13,206.87Zm-5.3-3.06-2.65-1.53a.62.62,0,0,1,.62-1.07l2.65,1.53a.62.62,0,0,1,.23.85.63.63,0,0,1-.54.31A.61.61,0,0,1,264.83,203.81Zm-5.29-3.06-2.65-1.52a.62.62,0,1,1,.62-1.07l2.64,1.53a.62.62,0,0,1-.3,1.15A.56.56,0,0,1,259.54,200.75Zm-5.3-3.05-2.65-1.53a.62.62,0,0,1,.62-1.07l2.65,1.53a.62.62,0,0,1,.22.84.6.6,0,0,1-.53.31A.68.68,0,0,1,254.24,197.7Zm-5.3-3.06-2.64-1.53a.62.62,0,0,1,.61-1.07l2.65,1.53a.61.61,0,0,1,.23.84.63.63,0,0,1-.54.31A.6.6,0,0,1,248.94,194.64Zm-63.09-23.08a.62.62,0,0,1,.22-.84l2.65-1.53a.61.61,0,0,1,.83.23.62.62,0,0,1-.24.85l-2.62,1.52a.68.68,0,0,1-.31.08A.6.6,0,0,1,185.85,171.56Zm20.7-1.29a19.53,19.53,0,0,0-2.79-1,.62.62,0,1,1,.33-1.19,21.5,21.5,0,0,1,3,1.06.61.61,0,0,1,.32.81.62.62,0,0,1-.57.37A.74.74,0,0,1,206.55,170.27Zm-15.3-1.55a.62.62,0,0,1,.42-.77,19.42,19.42,0,0,1,3.09-.62.63.63,0,0,1,.69.54.62.62,0,0,1-.54.69,18,18,0,0,0-2.89.58.55.55,0,0,1-.18,0A.62.62,0,0,1,191.25,168.72Zm9.6-.06a21.36,21.36,0,0,0-3-.24.63.63,0,0,1-.61-.63.64.64,0,0,1,.63-.61,27.5,27.5,0,0,1,3.13.25.63.63,0,0,1,.52.71.62.62,0,0,1-.61.52Z"/><path class="cls-54" d="M202,392.9a25.41,25.41,0,0,1-3.12-.26.62.62,0,1,1,.18-1.22,22.74,22.74,0,0,0,3,.25.62.62,0,0,1,0,1.23Zm2.46-.69a.62.62,0,0,1,.54-.68,18,18,0,0,0,2.89-.58.62.62,0,0,1,.77.42.63.63,0,0,1-.42.77,18.5,18.5,0,0,1-3.1.61h-.07A.61.61,0,0,1,204.47,392.21Zm-8.65-.22a21.13,21.13,0,0,1-3-1.06.62.62,0,1,1,.51-1.12,20.84,20.84,0,0,0,2.79,1,.62.62,0,0,1,.43.76.63.63,0,0,1-.6.45Zm14.56-1.32a.65.65,0,0,1,.25-.86l2.65-1.53a.62.62,0,0,1,.62,1.07l-2.68,1.55-.33-.53.31.54a.63.63,0,0,1-.29.08A.63.63,0,0,1,210.38,390.67Zm-20.27-1.21-2.65-1.53a.62.62,0,0,1,.62-1.07l2.65,1.53a.62.62,0,0,1,.23.85.65.65,0,0,1-.54.3A.6.6,0,0,1,190.11,389.46Zm25.59-1.86a.62.62,0,0,1,.23-.85l2.65-1.53a.62.62,0,0,1,.84.23.61.61,0,0,1-.23.84l-2.64,1.53a.6.6,0,0,1-.31.08A.65.65,0,0,1,215.7,387.6Zm-30.88-1.2-2.65-1.53a.61.61,0,0,1-.23-.84.62.62,0,0,1,.85-.22l2.64,1.52a.62.62,0,0,1,.23.85.6.6,0,0,1-.53.31A.56.56,0,0,1,184.82,386.4ZM221,384.54a.62.62,0,0,1,.22-.84l2.65-1.53a.63.63,0,0,1,.85.22.61.61,0,0,1-.23.84l-2.65,1.53a.59.59,0,0,1-.31.09A.6.6,0,0,1,221,384.54Zm-41.48-1.19-2.65-1.53a.63.63,0,0,1-.22-.85.61.61,0,0,1,.84-.22l2.65,1.53a.62.62,0,0,1-.31,1.15A.68.68,0,0,1,179.52,383.35Zm46.78-1.87a.61.61,0,0,1,.22-.84l2.65-1.53a.62.62,0,0,1,.84.22.63.63,0,0,1-.22.85l-2.65,1.53a.71.71,0,0,1-.31.08A.6.6,0,0,1,226.3,381.48Zm-52.08-1.19-2.64-1.53a.62.62,0,1,1,.61-1.07l2.65,1.53a.61.61,0,0,1,.23.84.62.62,0,0,1-.54.31A.6.6,0,0,1,174.22,380.29Zm57.37-1.87a.61.61,0,0,1,.23-.84l2.65-1.53a.62.62,0,0,1,.61,1.07l-2.65,1.53a.64.64,0,0,1-.3.08A.61.61,0,0,1,231.59,378.42Zm-62.66-1.19-2.65-1.53a.61.61,0,0,1-.23-.84.62.62,0,0,1,.85-.23l2.65,1.53a.63.63,0,0,1,.22.85.62.62,0,0,1-.53.3A.58.58,0,0,1,168.93,377.23Zm68-1.86a.63.63,0,0,1,.22-.85l2.65-1.53a.62.62,0,0,1,.85.23.61.61,0,0,1-.23.84l-2.65,1.53a.58.58,0,0,1-.31.08A.62.62,0,0,1,236.89,375.37Zm-73.26-1.2L161,372.64a.62.62,0,0,1-.22-.84.6.6,0,0,1,.84-.22l2.65,1.52a.62.62,0,0,1,.22.85.6.6,0,0,1-.53.31A.61.61,0,0,1,163.63,374.17Zm78.55-1.86a.62.62,0,0,1,.23-.85l2.65-1.52a.61.61,0,1,1,.62,1.06L243,372.53a.61.61,0,0,1-.31.09A.66.66,0,0,1,242.18,372.31Zm-83.84-1.19-2.65-1.53a.62.62,0,1,1,.62-1.07l2.64,1.53a.61.61,0,0,1,.23.84.62.62,0,0,1-.54.31A.64.64,0,0,1,158.34,371.12Zm89.14-1.87a.61.61,0,0,1,.23-.84l2.64-1.53A.62.62,0,1,1,251,368l-2.65,1.52a.56.56,0,0,1-.31.09A.6.6,0,0,1,247.48,369.25ZM153,368.06l-.85-.49a15.12,15.12,0,0,1-1.79-1.21.62.62,0,0,1,.76-1,14.82,14.82,0,0,0,1.65,1.11l.85.49a.62.62,0,0,1,.22.84.6.6,0,0,1-.53.31A.68.68,0,0,1,153,368.06Zm99.74-1.86a.63.63,0,0,1,.21-.85,6.85,6.85,0,0,0,2.07-1.85.62.62,0,0,1,.86-.16.63.63,0,0,1,.15.87,8.21,8.21,0,0,1-2.44,2.2.62.62,0,0,1-.32.09A.63.63,0,0,1,252.78,366.2ZM148.18,364a6.06,6.06,0,0,1-1.06-3.18.61.61,0,0,1,.6-.63.62.62,0,0,1,.63.6,4.89,4.89,0,0,0,.86,2.54.61.61,0,0,1-.18.85.58.58,0,0,1-.33.1A.62.62,0,0,1,148.18,364Zm107.66-3a4.93,4.93,0,0,0-.87-2.53.62.62,0,0,1,.17-.86.62.62,0,0,1,.86.18,6.15,6.15,0,0,1,1.08,3.17.62.62,0,0,1-.6.64h0A.62.62,0,0,1,255.84,361Zm-107.55-2.56a.63.63,0,0,1-.15-.87,8.22,8.22,0,0,1,2.45-2.19.62.62,0,1,1,.64,1.06,6.89,6.89,0,0,0-2.08,1.85.62.62,0,0,1-.51.26A.66.66,0,0,1,148.29,358.44Zm104.72-2a13.07,13.07,0,0,0-1.62-1.09l-.88-.51a.62.62,0,0,1,.62-1.07l.87.51a15.74,15.74,0,0,1,1.78,1.19.63.63,0,0,1,.1.87.62.62,0,0,1-.49.23A.6.6,0,0,1,253,356.4Zm-100-1.71a.62.62,0,0,1,.23-.85l2.65-1.52a.62.62,0,1,1,.61,1.07l-2.65,1.52a.55.55,0,0,1-.3.09A.62.62,0,0,1,153,354.69Zm94.84-1.42-2.64-1.53a.61.61,0,1,1,.61-1.06l2.65,1.52a.62.62,0,0,1-.31,1.16A.61.61,0,0,1,247.86,353.27Zm-89.54-1.64a.62.62,0,0,1,.22-.84l2.65-1.53a.62.62,0,1,1,.62,1.07l-2.65,1.53a.68.68,0,0,1-.31.08A.6.6,0,0,1,158.32,351.63Zm84.25-1.42-2.65-1.52a.62.62,0,1,1,.62-1.07l2.65,1.53a.62.62,0,0,1,.22.84.6.6,0,0,1-.53.31A.59.59,0,0,1,242.57,350.21Zm-79-1.64a.61.61,0,0,1,.23-.84l2.65-1.53a.62.62,0,0,1,.62,1.07l-2.65,1.53a.6.6,0,0,1-.31.08A.63.63,0,0,1,163.61,348.57Zm73.66-1.41-2.65-1.53a.63.63,0,0,1-.22-.85.62.62,0,0,1,.84-.22l2.65,1.53a.61.61,0,0,1,.23.84.63.63,0,0,1-.54.31A.71.71,0,0,1,237.27,347.16Zm-68.36-1.65a.61.61,0,0,1,.23-.84l2.64-1.53a.62.62,0,0,1,.85.23.61.61,0,0,1-.23.84l-2.65,1.53a.54.54,0,0,1-.3.08A.61.61,0,0,1,168.91,345.51ZM232,344.1l-2.65-1.53a.61.61,0,0,1-.23-.84.62.62,0,0,1,.85-.23l2.64,1.53a.61.61,0,0,1,.23.84.6.6,0,0,1-.53.31A.55.55,0,0,1,232,344.1Zm-57.77-1.64a.63.63,0,0,1,.22-.85l2.65-1.53a.63.63,0,0,1,.84.23.62.62,0,0,1-.22.84l-2.65,1.53a.59.59,0,0,1-.31.09A.63.63,0,0,1,174.21,342.46ZM226.68,341,224,339.51a.62.62,0,0,1,.62-1.07L227.3,340a.63.63,0,0,1,.22.85.62.62,0,0,1-.53.3A.58.58,0,0,1,226.68,341ZM179.5,339.4a.61.61,0,0,1,.23-.84l2.65-1.53a.62.62,0,1,1,.61,1.07l-2.64,1.53a.71.71,0,0,1-.31.08A.62.62,0,0,1,179.5,339.4ZM221.38,338l-2.65-1.53a.62.62,0,0,1-.22-.84.61.61,0,0,1,.84-.22l2.65,1.52a.62.62,0,0,1,.23.85.63.63,0,0,1-.54.31A.61.61,0,0,1,221.38,338Zm-36.58-1.64a.62.62,0,0,1,.22-.84l2.65-1.53a.62.62,0,0,1,.85.23.61.61,0,0,1-.23.84l-2.65,1.53a.68.68,0,0,1-.31.08A.6.6,0,0,1,184.8,336.34Zm31.29-1.41-2.65-1.53a.62.62,0,0,1-.23-.85.63.63,0,0,1,.85-.22l2.64,1.53a.61.61,0,0,1,.23.84.6.6,0,0,1-.53.31A.65.65,0,0,1,216.09,334.93Zm-26-1.65a.61.61,0,0,1,.23-.84l2.59-1.49.06,0a.6.6,0,0,1,.83.24.62.62,0,0,1-.24.84l-2.62,1.52a.6.6,0,0,1-.31.08A.63.63,0,0,1,190.09,333.28ZM210.8,332a19.53,19.53,0,0,0-2.79-1,.62.62,0,0,1,.33-1.19,22,22,0,0,1,3,1.06.61.61,0,0,1,.32.81.63.63,0,0,1-.57.37A.74.74,0,0,1,210.8,332Zm-15.3-1.55a.61.61,0,0,1,.42-.76,18.16,18.16,0,0,1,3.09-.63.63.63,0,0,1,.69.54.62.62,0,0,1-.54.69,18,18,0,0,0-2.89.58l-.18,0A.62.62,0,0,1,195.5,330.44Zm9.6-.06a24.93,24.93,0,0,0-3-.24.63.63,0,0,1-.61-.63.6.6,0,0,1,.63-.61,25.4,25.4,0,0,1,3.13.26.62.62,0,0,1,.52.7.63.63,0,0,1-.61.53Z"/><path class="cls-54" d="M280.35,437.7a25.4,25.4,0,0,1-3.13-.26.63.63,0,0,1-.52-.7.63.63,0,0,1,.7-.53,23,23,0,0,0,3,.25.62.62,0,0,1,0,1.24Zm2.45-.69a.62.62,0,0,1,.54-.69,18,18,0,0,0,2.89-.57.61.61,0,0,1,.77.41.62.62,0,0,1-.42.77,19.55,19.55,0,0,1-3.1.62h-.07A.62.62,0,0,1,282.8,437Zm-8.64-.22a20.28,20.28,0,0,1-3-1.07.61.61,0,0,1-.32-.81.61.61,0,0,1,.82-.31,20.84,20.84,0,0,0,2.79,1,.62.62,0,0,1,.43.76.63.63,0,0,1-.6.45Zm14.56-1.33a.64.64,0,0,1,.25-.86l2.65-1.53a.62.62,0,1,1,.61,1.07l-2.66,1.54-.35-.51.31.53a.51.51,0,0,1-.29.08A.6.6,0,0,1,288.72,435.46Zm-20.27-1.21-2.65-1.53a.61.61,0,1,1,.62-1.06l2.64,1.52a.62.62,0,0,1,.23.85.61.61,0,0,1-.54.31A.55.55,0,0,1,268.45,434.25ZM294,432.39a.63.63,0,0,1,.22-.85l2.65-1.52a.62.62,0,0,1,.84.22.61.61,0,0,1-.22.84l-2.65,1.53a.59.59,0,0,1-.31.09A.6.6,0,0,1,294,432.39Zm-30.89-1.2-2.65-1.52a.63.63,0,0,1-.22-.85.61.61,0,0,1,.84-.22l2.65,1.53a.62.62,0,0,1,.22.84.6.6,0,0,1-.53.31A.59.59,0,0,1,263.15,431.19Zm36.18-1.86a.61.61,0,0,1,.23-.84l2.65-1.53a.62.62,0,0,1,.84.22.63.63,0,0,1-.22.85l-2.65,1.53a.71.71,0,0,1-.31.08A.63.63,0,0,1,299.33,429.33Zm-41.48-1.19-2.65-1.53a.63.63,0,0,1-.22-.85.62.62,0,0,1,.84-.22l2.65,1.53a.61.61,0,0,1,.23.84.62.62,0,0,1-.54.31A.71.71,0,0,1,257.85,428.14Zm46.78-1.87a.61.61,0,0,1,.23-.84l2.64-1.53a.62.62,0,0,1,.85.23.61.61,0,0,1-.23.84l-2.65,1.53a.55.55,0,0,1-.31.08A.6.6,0,0,1,304.63,426.27Zm-52.07-1.19-2.65-1.53a.61.61,0,0,1-.23-.84.62.62,0,0,1,.85-.23l2.64,1.53a.61.61,0,0,1,.23.84.6.6,0,0,1-.53.31A.55.55,0,0,1,252.56,425.08Zm57.37-1.87a.62.62,0,0,1,.22-.84l2.65-1.53a.62.62,0,0,1,.62,1.07l-2.65,1.53a.58.58,0,0,1-.31.08A.6.6,0,0,1,309.93,423.21ZM247.26,422l-2.65-1.53a.62.62,0,0,1,.62-1.07l2.65,1.53a.62.62,0,0,1-.31,1.15A.58.58,0,0,1,247.26,422Zm68-1.86a.62.62,0,0,1,.23-.85l2.65-1.52a.62.62,0,0,1,.84.22.61.61,0,0,1-.23.84l-2.64,1.53a.61.61,0,0,1-.31.09A.63.63,0,0,1,315.22,420.16ZM242,419l-2.64-1.53a.61.61,0,1,1,.61-1.06l2.65,1.52a.62.62,0,0,1-.31,1.16A.61.61,0,0,1,242,419Zm78.56-1.86a.62.62,0,0,1,.22-.84l2.65-1.53a.62.62,0,1,1,.62,1.07l-2.65,1.53a.68.68,0,0,1-.31.08A.6.6,0,0,1,320.52,417.1Zm-83.85-1.19L234,414.38a.62.62,0,0,1-.22-.85.61.61,0,0,1,.84-.22l2.65,1.53a.62.62,0,0,1,.22.84.6.6,0,0,1-.53.31A.68.68,0,0,1,236.67,415.91ZM325.81,414a.61.61,0,0,1,.23-.84l2.65-1.53a.62.62,0,0,1,.62,1.07l-2.65,1.53a.71.71,0,0,1-.31.08A.63.63,0,0,1,325.81,414Zm-94.44-1.19-.85-.49a16.43,16.43,0,0,1-1.79-1.21.62.62,0,1,1,.77-1,13.8,13.8,0,0,0,1.64,1.11l.85.49a.61.61,0,0,1,.23.84.63.63,0,0,1-.54.31A.71.71,0,0,1,231.37,412.85ZM331.12,411a.61.61,0,0,1,.2-.85,6.88,6.88,0,0,0,2.07-1.86.61.61,0,0,1,.86-.15.62.62,0,0,1,.16.86,8.19,8.19,0,0,1-2.44,2.2.68.68,0,0,1-.33.09A.6.6,0,0,1,331.12,411Zm-104.61-2.22a6.12,6.12,0,0,1-1.06-3.18.61.61,0,0,1,.6-.63.68.68,0,0,1,.64.6,4.86,4.86,0,0,0,.86,2.54.62.62,0,0,1-.18.85.61.61,0,0,1-.34.1A.63.63,0,0,1,226.51,408.78Zm107.67-3a4.86,4.86,0,0,0-.88-2.53.63.63,0,0,1,.18-.86.62.62,0,0,1,.86.18,6.14,6.14,0,0,1,1.07,3.18.61.61,0,0,1-.6.63h0A.61.61,0,0,1,334.18,405.79Zm-107.56-2.56a.62.62,0,0,1-.14-.87,8.1,8.1,0,0,1,2.45-2.19.62.62,0,0,1,.63,1.06,6.89,6.89,0,0,0-2.08,1.85.61.61,0,0,1-.5.26A.69.69,0,0,1,226.62,403.23Zm104.73-2a14.44,14.44,0,0,0-1.63-1.09l-.87-.5a.62.62,0,1,1,.62-1.08l.87.51a14.75,14.75,0,0,1,1.77,1.19.62.62,0,0,1-.38,1.1A.58.58,0,0,1,331.35,401.19Zm-100-1.71a.62.62,0,0,1,.22-.84l2.65-1.53a.62.62,0,1,1,.62,1.07l-2.65,1.52a.59.59,0,0,1-.31.09A.6.6,0,0,1,231.36,399.48Zm94.84-1.42-2.65-1.52a.62.62,0,0,1-.22-.85.61.61,0,0,1,.84-.22l2.65,1.53a.62.62,0,0,1,.22.84.6.6,0,0,1-.53.31A.59.59,0,0,1,326.2,398.06Zm-89.55-1.64a.61.61,0,0,1,.23-.84l2.65-1.53a.62.62,0,0,1,.62,1.07l-2.65,1.53a.71.71,0,0,1-.31.08A.63.63,0,0,1,236.65,396.42ZM320.9,395l-2.64-1.53a.62.62,0,0,1,.61-1.07l2.65,1.53a.61.61,0,0,1,.23.84.62.62,0,0,1-.54.31A.71.71,0,0,1,320.9,395ZM242,393.36a.61.61,0,0,1,.23-.84l2.64-1.53a.62.62,0,0,1,.85.23.61.61,0,0,1-.23.84l-2.65,1.53a.55.55,0,0,1-.31.08A.6.6,0,0,1,242,393.36ZM315.61,392,313,390.42a.61.61,0,0,1-.23-.84.62.62,0,0,1,.85-.23l2.65,1.53a.62.62,0,0,1,.22.84.6.6,0,0,1-.53.31A.58.58,0,0,1,315.61,392Zm-68.36-1.64a.63.63,0,0,1,.22-.85l2.65-1.53a.62.62,0,0,1,.62,1.07l-2.65,1.53a.58.58,0,0,1-.31.08A.62.62,0,0,1,247.25,390.31Zm63.06-1.42-2.65-1.53a.62.62,0,0,1,.62-1.07l2.65,1.53a.63.63,0,0,1,.23.85.66.66,0,0,1-.54.31A.61.61,0,0,1,310.31,388.89Zm-57.77-1.64a.62.62,0,0,1,.23-.85l2.65-1.52a.62.62,0,0,1,.84.22.61.61,0,0,1-.23.84l-2.64,1.53a.61.61,0,0,1-.31.09A.62.62,0,0,1,252.54,387.25ZM305,385.83l-2.64-1.52a.62.62,0,1,1,.61-1.07l2.65,1.53a.61.61,0,0,1,.23.84.62.62,0,0,1-.54.31A.61.61,0,0,1,305,385.83Zm-47.17-1.64a.62.62,0,0,1,.22-.84l2.65-1.53a.63.63,0,0,1,.85.22.62.62,0,0,1-.23.85l-2.65,1.53a.68.68,0,0,1-.31.08A.6.6,0,0,1,257.84,384.19Zm41.88-1.41-2.65-1.53a.62.62,0,0,1,.62-1.07l2.65,1.53a.62.62,0,0,1,.22.84.6.6,0,0,1-.53.31A.68.68,0,0,1,299.72,382.78Zm-36.59-1.65a.61.61,0,0,1,.23-.84l2.65-1.53a.62.62,0,0,1,.62,1.07L264,381.36a.6.6,0,0,1-.31.08A.63.63,0,0,1,263.13,381.13Zm31.29-1.41-2.65-1.53a.62.62,0,0,1,.62-1.07l2.65,1.53a.61.61,0,0,1,.23.84.62.62,0,0,1-.54.31A.6.6,0,0,1,294.42,379.72Zm-26-1.65a.61.61,0,0,1,.23-.84l2.65-1.53a.61.61,0,0,1,.83.24.64.64,0,0,1-.24.85l-2.63,1.51a.55.55,0,0,1-.31.08A.6.6,0,0,1,268.43,378.07Zm20.71-1.29a20.84,20.84,0,0,0-2.79-1,.61.61,0,0,1-.43-.76.62.62,0,0,1,.76-.43,22,22,0,0,1,3,1.06.62.62,0,0,1,.31.82.61.61,0,0,1-.56.36A.53.53,0,0,1,289.14,376.78Zm-15.3-1.55a.61.61,0,0,1,.41-.76,17.54,17.54,0,0,1,3.1-.62.61.61,0,1,1,.15,1.22,18.15,18.15,0,0,0-2.9.58.51.51,0,0,1-.17,0A.61.61,0,0,1,273.84,375.23Zm9.59-.06a24.6,24.6,0,0,0-3-.24.62.62,0,0,1,0-1.24,25.41,25.41,0,0,1,3.12.26.61.61,0,0,1,.52.7.62.62,0,0,1-.61.53Z"/><path class="cls-54" d="M513.71,392.93a25.41,25.41,0,0,1-3.12-.26.62.62,0,0,1-.52-.7.63.63,0,0,1,.7-.53,22.88,22.88,0,0,0,3,.25.62.62,0,0,1,0,1.24Zm2.46-.69a.62.62,0,0,1,.54-.69,18,18,0,0,0,2.89-.57.62.62,0,1,1,.35,1.18,19.55,19.55,0,0,1-3.1.62h-.07A.61.61,0,0,1,516.17,392.24Zm-8.64-.22a20.84,20.84,0,0,1-3-1.07.62.62,0,1,1,.51-1.12,20.84,20.84,0,0,0,2.79,1,.62.62,0,0,1,.43.76.63.63,0,0,1-.6.45Zm14.55-1.33a.65.65,0,0,1,.25-.86L525,388.3a.62.62,0,0,1,.85.23.61.61,0,0,1-.23.84l-2.7,1.56a.51.51,0,0,1-.29.08A.63.63,0,0,1,522.08,390.69Zm-20.27-1.21L499.17,388a.62.62,0,0,1,.61-1.07l2.65,1.53a.62.62,0,0,1,.23.85.63.63,0,0,1-.54.31A.61.61,0,0,1,501.81,389.48Zm25.6-1.86a.61.61,0,0,1,.22-.84l2.65-1.53a.62.62,0,0,1,.84.22.63.63,0,0,1-.22.85l-2.65,1.52a.61.61,0,0,1-.31.09A.6.6,0,0,1,527.41,387.62Zm-30.89-1.19-2.65-1.53a.62.62,0,1,1,.62-1.07l2.65,1.53a.62.62,0,0,1,.22.84.6.6,0,0,1-.53.31A.68.68,0,0,1,496.52,386.43Zm36.18-1.87a.61.61,0,0,1,.23-.84l2.64-1.53a.62.62,0,1,1,.62,1.07l-2.65,1.53a.64.64,0,0,1-.3.08A.62.62,0,0,1,532.7,384.56Zm-41.48-1.19-2.65-1.53a.62.62,0,0,1,.62-1.07l2.65,1.53a.62.62,0,0,1-.31,1.15A.71.71,0,0,1,491.22,383.37ZM538,381.5a.62.62,0,0,1,.22-.84l2.65-1.53a.62.62,0,0,1,.85.23.61.61,0,0,1-.23.84l-2.65,1.53a.58.58,0,0,1-.31.08A.6.6,0,0,1,538,381.5Zm-52.07-1.19-2.65-1.53a.61.61,0,0,1-.23-.84.62.62,0,0,1,.85-.23l2.64,1.53a.62.62,0,0,1-.31,1.15A.54.54,0,0,1,485.93,380.31Zm57.36-1.86a.62.62,0,0,1,.23-.85l2.65-1.53a.62.62,0,0,1,.62,1.07l-2.65,1.53a.6.6,0,0,1-.31.08A.65.65,0,0,1,543.29,378.45Zm-62.66-1.2L478,375.72a.62.62,0,0,1,.62-1.07l2.65,1.53a.63.63,0,0,1,.22.85.6.6,0,0,1-.53.31A.59.59,0,0,1,480.63,377.25Zm68-1.86a.62.62,0,0,1,.23-.85l2.64-1.52a.62.62,0,1,1,.62,1.07l-2.65,1.52a.56.56,0,0,1-.31.09A.6.6,0,0,1,548.59,375.39Zm-73.26-1.2-2.65-1.52a.63.63,0,0,1-.22-.85.62.62,0,0,1,.84-.22l2.65,1.53a.61.61,0,0,1,.23.84.63.63,0,0,1-.54.31A.61.61,0,0,1,475.33,374.19Zm78.56-1.86a.62.62,0,0,1,.22-.84l2.65-1.53a.62.62,0,0,1,.84.22.63.63,0,0,1-.22.85l-2.65,1.53a.68.68,0,0,1-.31.08A.6.6,0,0,1,553.89,372.33ZM470,371.14l-2.65-1.53a.62.62,0,1,1,.62-1.07l2.64,1.53a.61.61,0,0,1,.23.84.6.6,0,0,1-.53.31A.65.65,0,0,1,470,371.14Zm89.14-1.87a.61.61,0,0,1,.23-.84l2.65-1.53a.62.62,0,0,1,.61,1.07L560,369.5a.6.6,0,0,1-.31.08A.62.62,0,0,1,559.18,369.27Zm-94.44-1.19-.85-.49a15.26,15.26,0,0,1-1.8-1.21.63.63,0,0,1-.1-.87.62.62,0,0,1,.87-.1,13.94,13.94,0,0,0,1.65,1.11l.85.49a.62.62,0,0,1-.31,1.15A.58.58,0,0,1,464.74,368.08Zm99.74-1.85a.62.62,0,0,1,.21-.85,6.88,6.88,0,0,0,2.07-1.86.62.62,0,0,1,1,.71,8,8,0,0,1-2.44,2.2.62.62,0,0,1-.85-.2ZM459.88,364a6.09,6.09,0,0,1-1.06-3.18.62.62,0,1,1,1.23,0,5.07,5.07,0,0,0,.86,2.54.61.61,0,0,1-.18.85.58.58,0,0,1-.33.1A.62.62,0,0,1,459.88,364Zm107.66-3a4.85,4.85,0,0,0-.87-2.54.62.62,0,1,1,1-.68,6.18,6.18,0,0,1,1.08,3.18.61.61,0,0,1-.6.63h0A.62.62,0,0,1,567.54,361ZM460,358.46a.62.62,0,0,1-.15-.86,8.11,8.11,0,0,1,2.45-2.2.63.63,0,0,1,.85.21.61.61,0,0,1-.21.85,7,7,0,0,0-2.08,1.85.62.62,0,0,1-.86.15Zm104.72-2a13.44,13.44,0,0,0-1.62-1.09l-.87-.5A.62.62,0,0,1,562,354a.61.61,0,0,1,.84-.22l.88.5a14.75,14.75,0,0,1,1.77,1.19.62.62,0,0,1,.1.87.63.63,0,0,1-.48.24A.64.64,0,0,1,564.71,356.42Zm-100-1.71a.61.61,0,0,1,.22-.84l2.65-1.53a.62.62,0,0,1,.84.22.63.63,0,0,1-.22.85l-2.65,1.53a.68.68,0,0,1-.31.08A.6.6,0,0,1,464.73,354.71Zm94.84-1.41-2.65-1.53a.62.62,0,1,1,.62-1.07l2.65,1.53a.62.62,0,0,1,.22.84.6.6,0,0,1-.53.31A.68.68,0,0,1,559.57,353.3ZM470,351.65a.61.61,0,0,1,.23-.84l2.65-1.53a.62.62,0,0,1,.61,1.07l-2.64,1.53a.6.6,0,0,1-.31.08A.62.62,0,0,1,470,351.65Zm84.25-1.41-2.65-1.53a.62.62,0,0,1,.62-1.07l2.65,1.53a.61.61,0,0,1,.23.84.63.63,0,0,1-.54.31A.6.6,0,0,1,554.27,350.24Zm-78.95-1.65a.62.62,0,0,1,.22-.84l2.65-1.53a.62.62,0,0,1,.62,1.07l-2.65,1.53a.58.58,0,0,1-.31.08A.6.6,0,0,1,475.32,348.59ZM549,347.18l-2.65-1.53a.62.62,0,1,1,.61-1.07l2.65,1.53a.61.61,0,0,1-.31,1.15A.54.54,0,0,1,549,347.18Zm-68.37-1.64a.62.62,0,0,1,.23-.85l2.65-1.53a.62.62,0,0,1,.62,1.07l-2.65,1.53a.61.61,0,0,1-.31.09A.64.64,0,0,1,480.61,345.54Zm63.07-1.42L541,342.59a.61.61,0,0,1-.22-.84.6.6,0,0,1,.84-.22l2.65,1.52a.63.63,0,0,1,.22.85.6.6,0,0,1-.53.31A.59.59,0,0,1,543.68,344.12Zm-57.77-1.64a.61.61,0,0,1,.23-.84l2.64-1.53a.62.62,0,1,1,.62,1.07l-2.65,1.53a.64.64,0,0,1-.3.08A.62.62,0,0,1,485.91,342.48Zm52.47-1.41-2.64-1.53a.62.62,0,1,1,.61-1.07L539,340a.61.61,0,0,1,.23.84.63.63,0,0,1-.54.31A.71.71,0,0,1,538.38,341.07Zm-47.17-1.65a.62.62,0,0,1,.22-.84l2.65-1.53a.62.62,0,0,1,.62,1.07l-2.65,1.53a.68.68,0,0,1-.31.08A.6.6,0,0,1,491.21,339.42ZM533.09,338l-2.65-1.53a.61.61,0,0,1-.23-.84.62.62,0,0,1,.85-.23l2.65,1.53a.62.62,0,0,1,.22.84.6.6,0,0,1-.53.31A.68.68,0,0,1,533.09,338Zm-36.59-1.65a.61.61,0,0,1,.23-.84l2.65-1.53a.62.62,0,0,1,.61,1.07l-2.64,1.53a.6.6,0,0,1-.31.08A.63.63,0,0,1,496.5,336.36ZM527.79,335l-2.65-1.53a.62.62,0,0,1,.62-1.07l2.65,1.53a.62.62,0,0,1-.31,1.15A.6.6,0,0,1,527.79,335Zm-26-1.64a.63.63,0,0,1,.22-.85l2.65-1.52.31.53-.31-.54a.6.6,0,0,1,.83.24.63.63,0,0,1-.24.85l-2.62,1.51a.59.59,0,0,1-.31.09A.63.63,0,0,1,501.8,333.31Zm20.71-1.3a21.49,21.49,0,0,0-2.8-1,.62.62,0,0,1,.34-1.19,22.49,22.49,0,0,1,3,1.06.62.62,0,0,1,.31.82.61.61,0,0,1-.56.36A.53.53,0,0,1,522.51,332Zm-15.31-1.54a.62.62,0,0,1,.42-.77,19.55,19.55,0,0,1,3.1-.62.61.61,0,1,1,.14,1.22,18,18,0,0,0-2.89.58l-.17,0A.63.63,0,0,1,507.2,330.47Zm9.6-.07a24.6,24.6,0,0,0-3-.24.61.61,0,0,1-.6-.63.6.6,0,0,1,.62-.61,25.4,25.4,0,0,1,3.13.26.62.62,0,0,1-.09,1.23Z"/><path class="cls-54" d="M437.12,438a25.41,25.41,0,0,1-3.12-.26.62.62,0,0,1-.52-.7.63.63,0,0,1,.7-.53,22.88,22.88,0,0,0,3,.25.62.62,0,0,1,0,1.24Zm2.46-.69a.62.62,0,0,1,.54-.69,17,17,0,0,0,2.89-.58.62.62,0,0,1,.35,1.19,19.55,19.55,0,0,1-3.1.62h-.07A.61.61,0,0,1,439.58,437.33Zm-8.64-.22a20.84,20.84,0,0,1-3-1.07.62.62,0,1,1,.51-1.12,20.84,20.84,0,0,0,2.79,1,.62.62,0,0,1,.43.76.63.63,0,0,1-.6.45Zm14.55-1.33a.65.65,0,0,1,.25-.86l2.65-1.53a.62.62,0,0,1,.85.23.61.61,0,0,1-.23.84l-2.7,1.56a.51.51,0,0,1-.29.08A.63.63,0,0,1,445.49,435.78Zm-20.27-1.21L422.58,433a.62.62,0,1,1,.61-1.07l2.65,1.53a.62.62,0,0,1,.23.85.66.66,0,0,1-.54.31A.61.61,0,0,1,425.22,434.57Zm25.6-1.86a.62.62,0,0,1,.22-.85l2.65-1.52a.61.61,0,0,1,.84.22.62.62,0,0,1-.22.84l-2.65,1.53a.61.61,0,0,1-.31.09A.6.6,0,0,1,450.82,432.71Zm-30.89-1.2L417.28,430a.62.62,0,1,1,.62-1.07l2.65,1.53a.62.62,0,0,1,.22.84.6.6,0,0,1-.53.31A.59.59,0,0,1,419.93,431.51Zm36.18-1.86a.61.61,0,0,1,.23-.84l2.64-1.53a.62.62,0,1,1,.62,1.07L457,429.88a.64.64,0,0,1-.3.08A.62.62,0,0,1,456.11,429.65Zm-41.48-1.19L412,426.93a.63.63,0,0,1-.22-.85.62.62,0,0,1,.84-.22l2.65,1.53a.62.62,0,0,1-.31,1.15A.71.71,0,0,1,414.63,428.46Zm46.78-1.87a.62.62,0,0,1,.22-.84l2.65-1.53a.62.62,0,0,1,.85.23.61.61,0,0,1-.23.84l-2.65,1.53a.68.68,0,0,1-.31.08A.6.6,0,0,1,461.41,426.59Zm-52.07-1.19-2.65-1.53a.61.61,0,0,1-.23-.84.62.62,0,0,1,.85-.23l2.64,1.53a.62.62,0,0,1-.31,1.15A.54.54,0,0,1,409.34,425.4Zm57.36-1.87a.61.61,0,0,1,.23-.84l2.65-1.53a.62.62,0,0,1,.62,1.07l-2.65,1.53a.6.6,0,0,1-.31.08A.63.63,0,0,1,466.7,423.53ZM404,422.34l-2.65-1.53a.62.62,0,0,1,.62-1.07l2.65,1.53a.62.62,0,0,1-.31,1.16A.59.59,0,0,1,404,422.34Zm68-1.86a.62.62,0,0,1,.23-.85l2.64-1.52a.63.63,0,0,1,.85.22.61.61,0,0,1-.23.84l-2.65,1.53a.56.56,0,0,1-.31.09A.6.6,0,0,1,472,420.48Zm-73.26-1.2-2.65-1.52a.63.63,0,0,1-.22-.85.61.61,0,0,1,.84-.22l2.65,1.53a.61.61,0,0,1,.23.84.63.63,0,0,1-.54.31A.61.61,0,0,1,398.74,419.28Zm78.56-1.86a.62.62,0,0,1,.22-.84l2.65-1.53a.62.62,0,0,1,.84.22.63.63,0,0,1-.22.85l-2.65,1.52a.59.59,0,0,1-.31.09A.6.6,0,0,1,477.3,417.42Zm-83.85-1.19-2.65-1.53a.62.62,0,1,1,.62-1.07l2.64,1.53a.62.62,0,0,1-.3,1.15A.65.65,0,0,1,393.45,416.23Zm89.14-1.87a.61.61,0,0,1,.23-.84l2.65-1.53a.62.62,0,1,1,.61,1.07l-2.64,1.53a.71.71,0,0,1-.31.08A.62.62,0,0,1,482.59,414.36Zm-94.44-1.19-.85-.49a15.26,15.26,0,0,1-1.8-1.21.63.63,0,0,1-.1-.87.62.62,0,0,1,.87-.1,13.94,13.94,0,0,0,1.65,1.11l.85.49a.62.62,0,0,1,.22.84.6.6,0,0,1-.53.31A.58.58,0,0,1,388.15,413.17Zm99.74-1.86a.61.61,0,0,1,.21-.84,6.88,6.88,0,0,0,2.07-1.86.62.62,0,0,1,1,.71,8,8,0,0,1-2.44,2.2.62.62,0,0,1-.32.09A.61.61,0,0,1,487.89,411.31Zm-104.6-2.21a6.09,6.09,0,0,1-1.06-3.18.62.62,0,1,1,1.23,0,5,5,0,0,0,.86,2.54.61.61,0,0,1-.18.85.58.58,0,0,1-.33.1A.62.62,0,0,1,383.29,409.1Zm107.66-3a4.85,4.85,0,0,0-.87-2.54.62.62,0,0,1,.18-.86.61.61,0,0,1,.85.18,6.15,6.15,0,0,1,1.08,3.18.61.61,0,0,1-.6.63h0A.62.62,0,0,1,491,406.12ZM383.4,403.55a.61.61,0,0,1-.14-.86,8,8,0,0,1,2.44-2.2.63.63,0,0,1,.85.21.61.61,0,0,1-.21.85,6.89,6.89,0,0,0-2.08,1.85.61.61,0,0,1-.5.26A.66.66,0,0,1,383.4,403.55Zm104.72-2a13.44,13.44,0,0,0-1.62-1.09l-.87-.51a.61.61,0,0,1-.23-.84.6.6,0,0,1,.84-.22l.88.5a14.75,14.75,0,0,1,1.77,1.19.62.62,0,0,1-.38,1.1A.63.63,0,0,1,488.12,401.51Zm-100-1.71a.61.61,0,0,1,.22-.84l2.65-1.53a.62.62,0,0,1,.84.22.63.63,0,0,1-.22.85L389,400a.59.59,0,0,1-.31.09A.6.6,0,0,1,388.14,399.8ZM483,398.39l-2.65-1.53a.62.62,0,1,1,.62-1.07l2.65,1.53a.62.62,0,0,1,.22.84.6.6,0,0,1-.53.31A.68.68,0,0,1,483,398.39Zm-89.55-1.65a.61.61,0,0,1,.23-.84l2.65-1.53a.62.62,0,1,1,.61,1.07L394.28,397a.71.71,0,0,1-.31.08A.62.62,0,0,1,393.43,396.74Zm84.25-1.41L475,393.8a.62.62,0,0,1,.62-1.07l2.65,1.53a.61.61,0,0,1,.23.84.63.63,0,0,1-.54.31A.71.71,0,0,1,477.68,395.33Zm-78.95-1.65a.62.62,0,0,1,.22-.84l2.65-1.53a.62.62,0,0,1,.62,1.07l-2.65,1.53a.58.58,0,0,1-.31.08A.6.6,0,0,1,398.73,393.68Zm73.66-1.41-2.65-1.53a.62.62,0,0,1,.61-1.07L473,391.2a.62.62,0,0,1-.31,1.15A.54.54,0,0,1,472.39,392.27ZM404,390.63a.62.62,0,0,1,.23-.85l2.65-1.53a.62.62,0,0,1,.62,1.07l-2.65,1.53a.6.6,0,0,1-.31.08A.63.63,0,0,1,404,390.63Zm63.07-1.42-2.65-1.53a.62.62,0,0,1,.62-1.07l2.65,1.53a.63.63,0,0,1,.22.85.6.6,0,0,1-.53.31A.59.59,0,0,1,467.09,389.21Zm-57.77-1.64a.61.61,0,0,1,.23-.84l2.64-1.53a.63.63,0,0,1,.85.22.61.61,0,0,1-.23.84l-2.65,1.53a.55.55,0,0,1-.3.09A.62.62,0,0,1,409.32,387.57Zm52.47-1.42-2.64-1.52a.62.62,0,1,1,.61-1.07l2.65,1.53a.61.61,0,0,1,.23.84.63.63,0,0,1-.54.31A.61.61,0,0,1,461.79,386.15Zm-47.17-1.64a.62.62,0,0,1,.22-.84l2.65-1.53a.62.62,0,0,1,.62,1.07l-2.65,1.53a.68.68,0,0,1-.31.08A.6.6,0,0,1,414.62,384.51Zm41.88-1.41-2.65-1.53a.62.62,0,1,1,.62-1.07l2.65,1.53a.62.62,0,0,1,.22.84.6.6,0,0,1-.53.31A.68.68,0,0,1,456.5,383.1Zm-36.59-1.65a.61.61,0,0,1,.23-.84l2.65-1.53a.62.62,0,0,1,.61,1.07l-2.64,1.53a.71.71,0,0,1-.31.08A.63.63,0,0,1,419.91,381.45ZM451.2,380l-2.65-1.53a.62.62,0,0,1,.62-1.07l2.65,1.53a.62.62,0,0,1-.31,1.15A.6.6,0,0,1,451.2,380Zm-26-1.64a.63.63,0,0,1,.22-.85l2.65-1.53.31.54-.31-.54a.6.6,0,0,1,.83.24.63.63,0,0,1-.24.85l-2.62,1.51a.58.58,0,0,1-.31.08A.62.62,0,0,1,425.21,378.4Zm20.71-1.3a21.49,21.49,0,0,0-2.8-1,.62.62,0,0,1,.34-1.19,22.49,22.49,0,0,1,3,1.06.62.62,0,0,1,.31.82.61.61,0,0,1-.56.36A.53.53,0,0,1,445.92,377.1Zm-15.31-1.55a.61.61,0,0,1,.42-.76,18.49,18.49,0,0,1,3.1-.62.61.61,0,1,1,.14,1.22,18,18,0,0,0-2.89.58l-.17,0A.63.63,0,0,1,430.61,375.55Zm9.6-.06a24.6,24.6,0,0,0-3-.24.61.61,0,0,1-.6-.63.58.58,0,0,1,.62-.61,25.4,25.4,0,0,1,3.13.26.62.62,0,0,1-.09,1.23Z"/><path class="cls-54" d="M149.4,231.47a25.38,25.38,0,0,1-3.12-.25.62.62,0,0,1-.52-.71.63.63,0,0,1,.7-.52,22.88,22.88,0,0,0,3,.25.62.62,0,0,1,0,1.23Zm2.46-.69a.62.62,0,0,1,.54-.68,17,17,0,0,0,2.89-.58.62.62,0,1,1,.35,1.19,19.55,19.55,0,0,1-3.1.62h-.07A.61.61,0,0,1,151.86,230.78Zm-8.64-.22a20.82,20.82,0,0,1-3-1.06.61.61,0,0,1-.31-.81.62.62,0,0,1,.82-.32,20.85,20.85,0,0,0,2.79,1,.62.62,0,0,1,.43.76.63.63,0,0,1-.6.45A.45.45,0,0,1,143.22,230.56Zm14.55-1.32a.65.65,0,0,1,.25-.86l2.65-1.53a.62.62,0,0,1,.85.23.61.61,0,0,1-.23.84l-2.7,1.56a.6.6,0,0,1-.29.08A.63.63,0,0,1,157.77,229.24ZM137.5,228l-2.65-1.53a.62.62,0,0,1,.62-1.07l2.65,1.53a.62.62,0,0,1,.23.85.65.65,0,0,1-.54.3A.6.6,0,0,1,137.5,228Zm25.59-1.86a.62.62,0,0,1,.23-.85l2.65-1.53a.63.63,0,0,1,.84.23.62.62,0,0,1-.22.84l-2.65,1.53a.6.6,0,0,1-.31.08A.65.65,0,0,1,163.09,226.17ZM132.21,225l-2.65-1.53a.61.61,0,1,1,.62-1.06l2.64,1.52a.62.62,0,0,1,.23.85.6.6,0,0,1-.53.31A.56.56,0,0,1,132.21,225Zm36.18-1.86a.61.61,0,0,1,.23-.84l2.64-1.53a.63.63,0,0,1,.85.22.61.61,0,0,1-.23.84l-2.65,1.53a.55.55,0,0,1-.3.09A.62.62,0,0,1,168.39,223.11Zm-41.48-1.19-2.65-1.53a.63.63,0,0,1-.22-.85.61.61,0,0,1,.84-.22l2.65,1.53a.62.62,0,0,1-.31,1.15A.68.68,0,0,1,126.91,221.92Zm46.78-1.87a.62.62,0,0,1,.22-.84l2.65-1.53a.6.6,0,0,1,.84.22.62.62,0,0,1-.22.85l-2.65,1.53a.68.68,0,0,1-.31.08A.6.6,0,0,1,173.69,220.05Zm-52.07-1.19L119,217.33a.62.62,0,0,1,.61-1.07l2.65,1.53a.61.61,0,0,1,.23.84.62.62,0,0,1-.54.31A.64.64,0,0,1,121.62,218.86ZM179,217a.61.61,0,0,1,.23-.84l2.65-1.53a.62.62,0,0,1,.62,1.07l-2.65,1.53a.6.6,0,0,1-.31.08A.63.63,0,0,1,179,217Zm-62.66-1.19-2.65-1.53a.62.62,0,0,1,.62-1.07l2.65,1.53a.63.63,0,0,1,.22.85.62.62,0,0,1-.53.3A.58.58,0,0,1,116.32,215.8Zm68-1.86a.62.62,0,0,1,.23-.85l2.64-1.53a.64.64,0,0,1,.85.23.61.61,0,0,1-.23.84l-2.65,1.53a.55.55,0,0,1-.31.08A.62.62,0,0,1,184.28,213.94ZM111,212.74l-2.65-1.53a.62.62,0,0,1-.22-.84.6.6,0,0,1,.84-.22l2.65,1.52a.62.62,0,0,1,.23.85.63.63,0,0,1-.54.31A.61.61,0,0,1,111,212.74Zm78.56-1.86a.62.62,0,0,1,.22-.85l2.65-1.52a.61.61,0,0,1,.84.22.62.62,0,0,1-.22.84l-2.65,1.53a.59.59,0,0,1-.31.09A.6.6,0,0,1,189.58,210.88Zm-83.85-1.2-2.65-1.52a.62.62,0,1,1,.62-1.07l2.64,1.53a.62.62,0,0,1-.31,1.15A.55.55,0,0,1,105.73,209.68Zm89.14-1.86a.61.61,0,0,1,.23-.84l2.65-1.53a.62.62,0,1,1,.61,1.07l-2.64,1.53a.71.71,0,0,1-.31.08A.62.62,0,0,1,194.87,207.82Zm-94.44-1.19-.85-.49a16.59,16.59,0,0,1-1.8-1.21.63.63,0,0,1-.1-.87.62.62,0,0,1,.87-.1,13.94,13.94,0,0,0,1.65,1.11l.85.49a.62.62,0,0,1,.22.84.6.6,0,0,1-.53.31A.68.68,0,0,1,100.43,206.63Zm99.74-1.86a.63.63,0,0,1,.21-.85,6.85,6.85,0,0,0,2.07-1.85.62.62,0,1,1,1,.71A8.08,8.08,0,0,1,201,205a.62.62,0,0,1-.32.09A.63.63,0,0,1,200.17,204.77Zm-104.6-2.21a6.09,6.09,0,0,1-1.06-3.18.62.62,0,0,1,.6-.64.61.61,0,0,1,.63.61,5,5,0,0,0,.86,2.54.61.61,0,0,1-.18.85.58.58,0,0,1-.33.1A.62.62,0,0,1,95.57,202.56Zm107.66-3a4.84,4.84,0,0,0-.87-2.53.62.62,0,0,1,.18-.86.61.61,0,0,1,.85.18,6.15,6.15,0,0,1,1.08,3.18.61.61,0,0,1-.6.63h0A.62.62,0,0,1,203.23,199.57ZM95.68,197a.62.62,0,0,1-.15-.86A8.11,8.11,0,0,1,98,194a.63.63,0,0,1,.85.21.62.62,0,0,1-.21.85,6.89,6.89,0,0,0-2.08,1.85.61.61,0,0,1-.5.26A.66.66,0,0,1,95.68,197Zm104.72-2a13.44,13.44,0,0,0-1.62-1.09l-.87-.51a.62.62,0,0,1,.61-1.07l.88.51a14.75,14.75,0,0,1,1.77,1.19.62.62,0,0,1-.38,1.1A.63.63,0,0,1,200.4,195Zm-100-1.71a.62.62,0,0,1,.22-.85l2.65-1.52a.61.61,0,1,1,.62,1.06l-2.65,1.53a.61.61,0,0,1-.31.09A.6.6,0,0,1,100.42,193.26Zm94.84-1.42-2.65-1.52a.62.62,0,1,1,.62-1.07l2.65,1.53a.62.62,0,0,1,.22.84.6.6,0,0,1-.53.31A.59.59,0,0,1,195.26,191.84Zm-89.55-1.64a.61.61,0,0,1,.23-.84l2.65-1.53a.62.62,0,1,1,.61,1.07l-2.65,1.53a.64.64,0,0,1-.3.08A.62.62,0,0,1,105.71,190.2ZM190,188.79l-2.65-1.53a.63.63,0,0,1-.22-.85.61.61,0,0,1,.84-.22l2.65,1.53a.61.61,0,0,1,.23.84.63.63,0,0,1-.54.31A.71.71,0,0,1,190,188.79ZM111,187.14a.62.62,0,0,1,.22-.84l2.65-1.53a.62.62,0,0,1,.62,1.07l-2.65,1.53a.68.68,0,0,1-.31.08A.6.6,0,0,1,111,187.14Zm73.65-1.41L182,184.2a.62.62,0,0,1,.61-1.07l2.65,1.53a.61.61,0,0,1,.23.84.62.62,0,0,1-.54.31A.6.6,0,0,1,184.66,185.73Zm-68.36-1.65a.61.61,0,0,1,.23-.84l2.65-1.53a.61.61,0,0,1,.84.23.62.62,0,0,1-.22.84l-2.65,1.53a.6.6,0,0,1-.31.08A.62.62,0,0,1,116.3,184.08Zm63.07-1.41-2.65-1.53a.62.62,0,0,1,.62-1.07L180,181.6a.63.63,0,0,1,.22.85.62.62,0,0,1-.53.3A.58.58,0,0,1,179.37,182.67ZM121.6,181a.62.62,0,0,1,.23-.85l2.64-1.53a.64.64,0,0,1,.85.23.61.61,0,0,1-.23.84l-2.65,1.53a.56.56,0,0,1-.31.09A.62.62,0,0,1,121.6,181Zm52.47-1.42-2.65-1.53a.62.62,0,0,1-.22-.84A.6.6,0,0,1,172,177l2.65,1.52a.62.62,0,0,1,.23.85.63.63,0,0,1-.54.31A.61.61,0,0,1,174.07,179.61ZM126.9,178a.62.62,0,0,1,.22-.84l2.65-1.53a.62.62,0,0,1,.84.22.63.63,0,0,1-.22.85l-2.65,1.52a.59.59,0,0,1-.31.09A.6.6,0,0,1,126.9,178Zm41.88-1.41L166.13,175a.62.62,0,1,1,.62-1.07l2.64,1.53a.62.62,0,0,1-.3,1.15A.65.65,0,0,1,168.78,176.56Zm-36.59-1.65a.61.61,0,0,1,.23-.84l2.65-1.53a.62.62,0,1,1,.61,1.07L133,175.14a.71.71,0,0,1-.31.08A.62.62,0,0,1,132.19,174.91Zm31.29-1.41L160.83,172a.62.62,0,0,1-.22-.84.6.6,0,0,1,.84-.23l2.65,1.53a.62.62,0,0,1-.31,1.15A.58.58,0,0,1,163.48,173.5Zm-26-1.65a.62.62,0,0,1,.22-.84l2.65-1.53.31.54-.31-.54a.6.6,0,0,1,.83.24.63.63,0,0,1-.24.85l-2.62,1.51a.58.58,0,0,1-.31.08A.6.6,0,0,1,137.49,171.85Zm20.71-1.29a20.12,20.12,0,0,0-2.8-1,.62.62,0,0,1-.43-.76.63.63,0,0,1,.76-.43,22.12,22.12,0,0,1,3,1.06.61.61,0,0,1,.31.81.6.6,0,0,1-.56.37A.7.7,0,0,1,158.2,170.56ZM142.89,169a.61.61,0,0,1,.42-.76,18.49,18.49,0,0,1,3.1-.63.63.63,0,0,1,.68.54.62.62,0,0,1-.54.69,18,18,0,0,0-2.89.58l-.17,0A.63.63,0,0,1,142.89,169Zm9.6-.06a24.6,24.6,0,0,0-3-.24.61.61,0,0,1-.6-.63.6.6,0,0,1,.62-.61,25.4,25.4,0,0,1,3.13.26.62.62,0,0,1-.09,1.23Z"/><path class="cls-54" d="M72.81,276.56a25.38,25.38,0,0,1-3.12-.25.62.62,0,0,1-.52-.71.63.63,0,0,1,.7-.52,22.88,22.88,0,0,0,3,.25.62.62,0,0,1,0,1.23Zm2.46-.69a.62.62,0,0,1,.54-.68,17,17,0,0,0,2.89-.58.62.62,0,0,1,.35,1.19,19.55,19.55,0,0,1-3.1.62h-.07A.61.61,0,0,1,75.27,275.87Zm-8.64-.22a20.82,20.82,0,0,1-3-1.06.61.61,0,0,1-.31-.81.62.62,0,0,1,.82-.32,19.53,19.53,0,0,0,2.79,1,.62.62,0,0,1-.17,1.22A.45.45,0,0,1,66.63,275.65Zm14.55-1.32a.65.65,0,0,1,.25-.86l2.65-1.53a.62.62,0,0,1,.85.23.61.61,0,0,1-.23.84L82,274.57a.6.6,0,0,1-.29.08A.63.63,0,0,1,81.18,274.33Zm-20.27-1.21-2.65-1.53a.62.62,0,0,1,.62-1.07l2.65,1.53a.61.61,0,0,1,.23.84.63.63,0,0,1-.54.31A.6.6,0,0,1,60.91,273.12Zm25.59-1.86a.62.62,0,0,1,.23-.85l2.65-1.53A.62.62,0,0,1,90,270l-2.65,1.53a.6.6,0,0,1-.31.08A.65.65,0,0,1,86.5,271.26Zm-30.88-1.2L53,268.53a.61.61,0,0,1-.23-.84.62.62,0,0,1,.85-.23L56.23,269a.62.62,0,0,1-.3,1.16A.56.56,0,0,1,55.62,270.06ZM91.8,268.2a.61.61,0,0,1,.23-.84l2.64-1.53a.63.63,0,0,1,.85.22.61.61,0,0,1-.23.84l-2.65,1.53a.55.55,0,0,1-.3.09A.62.62,0,0,1,91.8,268.2ZM50.32,267l-2.65-1.53a.63.63,0,0,1-.22-.85.6.6,0,0,1,.84-.22l2.65,1.53a.62.62,0,0,1-.31,1.15A.68.68,0,0,1,50.32,267Zm46.78-1.87a.62.62,0,0,1,.22-.84l2.65-1.53a.6.6,0,0,1,.84.22.62.62,0,0,1-.22.85l-2.65,1.53a.68.68,0,0,1-.31.08A.6.6,0,0,1,97.1,265.14ZM45,264l-2.64-1.53a.62.62,0,1,1,.61-1.07l2.65,1.53a.61.61,0,0,1,.23.84.62.62,0,0,1-.54.31A.71.71,0,0,1,45,264Zm57.37-1.87a.61.61,0,0,1,.23-.84l2.65-1.53a.62.62,0,0,1,.62,1.07l-2.65,1.53a.71.71,0,0,1-.31.08A.63.63,0,0,1,102.39,262.08Zm-62.66-1.19-2.65-1.53a.62.62,0,0,1,.62-1.07l2.65,1.53a.62.62,0,0,1,.22.84A.6.6,0,0,1,40,261,.58.58,0,0,1,39.73,260.89Zm68-1.86a.62.62,0,0,1,.23-.85l2.64-1.53a.62.62,0,0,1,.85.23.61.61,0,0,1-.23.84l-2.65,1.53a.55.55,0,0,1-.31.08A.62.62,0,0,1,107.69,259Zm-73.26-1.2-2.65-1.53a.62.62,0,0,1,.62-1.07l2.65,1.53a.62.62,0,0,1,.23.85.66.66,0,0,1-.54.31A.61.61,0,0,1,34.43,257.83ZM113,256a.62.62,0,0,1,.22-.85l2.65-1.52a.61.61,0,0,1,.62,1.06l-2.65,1.53a.59.59,0,0,1-.31.09A.63.63,0,0,1,113,256Zm-83.85-1.2-2.65-1.52a.62.62,0,1,1,.62-1.07l2.64,1.53a.62.62,0,0,1-.31,1.15A.55.55,0,0,1,29.14,254.77Zm89.14-1.86a.61.61,0,0,1,.23-.84l2.65-1.53a.62.62,0,1,1,.61,1.07l-2.64,1.53a.71.71,0,0,1-.31.08A.62.62,0,0,1,118.28,252.91Zm-94.44-1.19-.85-.49a16.59,16.59,0,0,1-1.8-1.21.63.63,0,0,1-.1-.87.61.61,0,0,1,.87-.1,13.94,13.94,0,0,0,1.65,1.11l.85.49a.62.62,0,0,1,.22.84.6.6,0,0,1-.53.31A.68.68,0,0,1,23.84,251.72Zm99.74-1.86a.63.63,0,0,1,.21-.85,6.85,6.85,0,0,0,2.07-1.85.62.62,0,0,1,.86-.16.63.63,0,0,1,.15.87,8.21,8.21,0,0,1-2.44,2.2.62.62,0,0,1-.32.09A.63.63,0,0,1,123.58,249.86ZM19,247.65a6.09,6.09,0,0,1-1.06-3.18.62.62,0,1,1,1.23,0A4.92,4.92,0,0,0,20,247a.62.62,0,0,1-.18.86.58.58,0,0,1-.33.1A.62.62,0,0,1,19,247.65Zm107.66-3a4.84,4.84,0,0,0-.87-2.53.62.62,0,0,1,.18-.86.61.61,0,0,1,.85.18,6.15,6.15,0,0,1,1.08,3.17.62.62,0,0,1-.6.64h0A.62.62,0,0,1,126.64,244.66ZM19.09,242.1a.63.63,0,0,1-.15-.87A8.22,8.22,0,0,1,21.39,239a.63.63,0,0,1,.85.21.62.62,0,0,1-.21.85A6.89,6.89,0,0,0,20,242a.61.61,0,0,1-.5.26A.66.66,0,0,1,19.09,242.1Zm104.72-2a13.44,13.44,0,0,0-1.62-1.09l-.87-.51a.62.62,0,1,1,.61-1.07l.88.51a14.75,14.75,0,0,1,1.77,1.19.62.62,0,0,1-.38,1.1A.63.63,0,0,1,123.81,240.06Zm-100-1.71a.62.62,0,0,1,.22-.85L26.7,236a.61.61,0,1,1,.62,1.06l-2.65,1.53a.61.61,0,0,1-.31.09A.63.63,0,0,1,23.83,238.35Zm94.84-1.42L116,235.4a.61.61,0,0,1-.23-.84.62.62,0,0,1,.85-.22l2.65,1.53a.62.62,0,0,1,.22.84.6.6,0,0,1-.53.31A.59.59,0,0,1,118.67,236.93Zm-89.55-1.64a.61.61,0,0,1,.23-.84L32,232.92a.62.62,0,1,1,.61,1.07L30,235.52a.64.64,0,0,1-.3.08A.62.62,0,0,1,29.12,235.29Zm84.25-1.41-2.65-1.53a.63.63,0,0,1-.22-.85.61.61,0,0,1,.84-.22l2.65,1.53a.61.61,0,0,1,.23.84.63.63,0,0,1-.54.31A.71.71,0,0,1,113.37,233.88Zm-78.95-1.65a.62.62,0,0,1,.22-.84l2.65-1.53a.62.62,0,0,1,.62,1.07l-2.65,1.53a.68.68,0,0,1-.31.08A.6.6,0,0,1,34.42,232.23Zm73.65-1.41-2.64-1.53a.62.62,0,0,1,.61-1.07l2.65,1.53a.61.61,0,0,1,.23.84.62.62,0,0,1-.54.31A.71.71,0,0,1,108.07,230.82Zm-68.36-1.65a.61.61,0,0,1,.23-.84l2.65-1.53a.62.62,0,0,1,.62,1.07l-2.65,1.53a.6.6,0,0,1-.31.08A.62.62,0,0,1,39.71,229.17Zm63.07-1.41-2.65-1.53a.62.62,0,0,1,.62-1.07l2.65,1.53a.63.63,0,0,1,.22.85.62.62,0,0,1-.53.3A.58.58,0,0,1,102.78,227.76ZM45,226.12a.62.62,0,0,1,.23-.85l2.64-1.53a.62.62,0,0,1,.85.23.61.61,0,0,1-.23.84l-2.65,1.53a.56.56,0,0,1-.31.09A.64.64,0,0,1,45,226.12Zm52.47-1.42-2.65-1.53a.62.62,0,0,1-.22-.84.6.6,0,0,1,.84-.22l2.65,1.52a.62.62,0,0,1,.23.85.66.66,0,0,1-.54.31A.61.61,0,0,1,97.48,224.7Zm-47.17-1.64a.62.62,0,0,1,.22-.84l2.65-1.53a.62.62,0,0,1,.84.22.63.63,0,0,1-.22.85l-2.65,1.52a.59.59,0,0,1-.31.09A.6.6,0,0,1,50.31,223.06Zm41.88-1.42-2.65-1.52a.62.62,0,1,1,.62-1.07l2.64,1.53a.62.62,0,0,1-.3,1.15A.56.56,0,0,1,92.19,221.64ZM55.6,220a.61.61,0,0,1,.23-.84l2.65-1.53a.62.62,0,1,1,.61,1.07l-2.64,1.53a.71.71,0,0,1-.31.08A.62.62,0,0,1,55.6,220Zm31.29-1.41-2.65-1.53a.63.63,0,0,1-.22-.85.61.61,0,0,1,.84-.22l2.65,1.53a.62.62,0,0,1-.31,1.15A.68.68,0,0,1,86.89,218.59Zm-26-1.65a.62.62,0,0,1,.22-.84l2.65-1.53.31.54-.31-.54a.6.6,0,0,1,.83.24.62.62,0,0,1-.24.84l-2.62,1.52a.58.58,0,0,1-.31.08A.6.6,0,0,1,60.9,216.94Zm20.71-1.29a20.12,20.12,0,0,0-2.8-1,.62.62,0,1,1,.33-1.19,22.12,22.12,0,0,1,3,1.06.61.61,0,0,1,.31.81.62.62,0,0,1-.56.37A.7.7,0,0,1,81.61,215.65ZM66.3,214.1a.61.61,0,0,1,.42-.76,18.49,18.49,0,0,1,3.1-.63.62.62,0,0,1,.14,1.23,18,18,0,0,0-2.89.58l-.17,0A.63.63,0,0,1,66.3,214.1Zm9.6-.06a24.6,24.6,0,0,0-3-.24.61.61,0,0,1-.6-.63.58.58,0,0,1,.62-.61,25.4,25.4,0,0,1,3.13.26.62.62,0,0,1-.09,1.23Z"/><path class="cls-54" d="M79.85,232.21l3.42,2L65.8,244.27a15,15,0,0,1-7.24,2,12.83,12.83,0,0,1-6.76-1.61c-2.09-1.2-3.14-2.51-3.16-3.91s1.16-2.76,3.53-4.08l.15,0,3.3,1.9c-1.54.89-2.4,1.74-2.56,2.53s.28,1.49,1.33,2.1a6,6,0,0,0,3.59.58,10.91,10.91,0,0,0,4.4-1.49Z"/><path class="cls-54" d="M80.91,254c1.16-.67,1.78-1.41,1.86-2.21s-.41-1.84-1.48-3.11q-2.46-2.64-2.64-4.71t2.64-3.69a12.54,12.54,0,0,1,6.83-1.53,15.21,15.21,0,0,1,7.23,2q3.42,2,3.36,4.41t-3.15,4.16l-.13,0-3.3-1.91c1.43-.82,2.22-1.71,2.37-2.65s-.43-1.8-1.78-2.58a7.72,7.72,0,0,0-4.07-1.06,7.93,7.93,0,0,0-3.89,1.05,2.43,2.43,0,0,0-1.51,2.16A6,6,0,0,0,85,247.62q2.33,2.55,2.29,4.61t-2.91,3.7a12.11,12.11,0,0,1-6.86,1.56,15.8,15.8,0,0,1-7.24-2.13q-3.3-1.91-3.82-4.45t3.1-4.53l.14,0L73,248.25c-1.67,1-2.47,1.93-2.39,2.91s.84,1.88,2.28,2.7A8,8,0,0,0,77,255,7.69,7.69,0,0,0,80.91,254Z"/><path class="cls-54" d="M140.12,196.81l0,.07a12.16,12.16,0,0,1-6,1.69,11.4,11.4,0,0,1-5.92-1.59c-1.91-1.1-2.79-2.34-2.66-3.74s1.34-2.74,3.63-4.06l5.35-3.09a15,15,0,0,1,7-2.11,11.55,11.55,0,0,1,6.42,1.49q2.85,1.65,2.84,3.43c0,1.18-1,2.36-3,3.52l-.12,0L145.12,191c1.39-.83,2.15-1.6,2.28-2.29s-.37-1.37-1.52-2a6.34,6.34,0,0,0-3.93-.72,12.43,12.43,0,0,0-4.75,1.68l-5.4,3.12c-1.69,1-2.66,1.9-2.93,2.78s.17,1.64,1.31,2.3a6,6,0,0,0,3.44.86,9.36,9.36,0,0,0,3.93-1.34Z"/><path class="cls-54" d="M153.72,199.58l4.56,2.63-2.3,1.34-4.57-2.64-6,3.48-2.64-1.53,6-3.48-4.56-2.63,2.3-1.33,4.57,2.63,5.73-3.31,2.64,1.53Z"/><path class="cls-54" d="M167.37,207.46l4.56,2.63-2.3,1.34-4.57-2.64-6,3.48-2.64-1.53,6-3.48-4.56-2.63,2.3-1.33,4.57,2.63,5.73-3.3,2.64,1.52Z"/><path class="cls-54" d="M275.16,407l-.05.09a15.62,15.62,0,0,1-7.64,2.14,14.54,14.54,0,0,1-7.51-2q-3.63-2.09-3.37-4.74t4.59-5.15l6.8-3.92a19.17,19.17,0,0,1,8.92-2.68,14.93,14.93,0,0,1,8.15,1.89c2.41,1.4,3.61,2.84,3.6,4.35s-1.27,3-3.76,4.47l-.15,0-3.25-1.87c1.76-1.06,2.73-2,2.9-2.9s-.48-1.74-1.93-2.58a8,8,0,0,0-5-.92,15.57,15.57,0,0,0-6,2.13l-6.85,4c-2.14,1.23-3.37,2.4-3.71,3.52s.21,2.08,1.66,2.92a7.63,7.63,0,0,0,4.35,1.09,12,12,0,0,0,5-1.7Z"/><path class="cls-54" d="M285.91,413.84,282.66,412l-8,3.36L272.33,414l8-3.36L277,408.69l2.19-1.26,3.67,2.12,7.2-3-3.57-2.06,2.19-1.27,3.91,2.26,8.11-3.39,2.33,1.35-8.09,3.4,3.25,1.88,8.11-3.4,2.33,1.35-8.09,3.4,3,1.75-2.19,1.26L298,411.1l-7.19,3,3.28,1.9-2.18,1.26-3.62-2.09-8,3.36-2.35-1.36Zm-.73-2.94,3.25,1.88,7.2-3-3.26-1.88Z"/><path class="cls-54" d="M182.21,350.18l-7.76,4.48-2.75-1.59,19.61-11.32,6.48,3.74q2.76,1.59,2.7,3.44t-2.72,3.39a11.75,11.75,0,0,1-5.87,1.58,11.44,11.44,0,0,1-6-1.57Zm2.07-1.2,3.73,2.16a5.81,5.81,0,0,0,3.45.73,8.55,8.55,0,0,0,3.53-1.12,3.9,3.9,0,0,0,2-2.06c.2-.73-.22-1.4-1.27-2L192,344.53Z"/><path class="cls-54" d="M200.09,369.46l-2.73-1.58,8.66-5-7.57-4.36-8.66,5L187,361.93l19.61-11.32,2.75,1.58-8.87,5.13,7.56,4.37,8.87-5.13,2.74,1.58Z"/><path class="cls-54" d="M214.44,368.79l-7.76,4.48-2.75-1.59,19.61-11.33L230,364.1q2.76,1.59,2.7,3.44c0,1.24-.95,2.36-2.72,3.39a11.74,11.74,0,0,1-5.87,1.57,11.56,11.56,0,0,1-6-1.56Zm2.07-1.2,3.73,2.15a5.71,5.71,0,0,0,3.44.73,8.53,8.53,0,0,0,3.54-1.11,3.85,3.85,0,0,0,2-2.07c.21-.72-.21-1.39-1.26-2l-3.73-2.15Z"/><path class="cls-54" d="M424.41,401.38l0,.07a12.84,12.84,0,0,1-6.35,1.78,12.1,12.1,0,0,1-6.24-1.67q-3-1.74-2.8-3.94t3.82-4.29l5.64-3.26a15.82,15.82,0,0,1,7.42-2.22,12.33,12.33,0,0,1,6.77,1.57c2,1.16,3,2.36,3,3.61s-1.05,2.5-3.12,3.72l-.12,0-2.7-1.56c1.46-.88,2.26-1.68,2.4-2.41s-.39-1.45-1.6-2.15a6.65,6.65,0,0,0-4.14-.76,12.83,12.83,0,0,0-5,1.77l-5.7,3.29c-1.77,1-2.8,2-3.08,2.93s.18,1.73,1.38,2.42a6.33,6.33,0,0,0,3.62.91,10,10,0,0,0,4.15-1.41Z"/><path class="cls-54" d="M435.86,409.2c1-.55,1.48-1.16,1.55-1.83a3.9,3.9,0,0,0-1.23-2.59,7,7,0,0,1-2.19-3.92c-.1-1.14.63-2.16,2.18-3.06a10.54,10.54,0,0,1,5.69-1.28,12.75,12.75,0,0,1,6,1.69c1.9,1.1,2.83,2.32,2.8,3.68s-.9,2.5-2.62,3.45l-.11,0-2.74-1.58a3.51,3.51,0,0,0,2-2.21c.13-.78-.36-1.5-1.48-2.14a6.33,6.33,0,0,0-3.38-.88,6.53,6.53,0,0,0-3.24.87,2,2,0,0,0-1.25,1.8,5,5,0,0,0,1.45,2.7,5.85,5.85,0,0,1,1.89,3.83c0,1.14-.82,2.16-2.41,3.08a10.23,10.23,0,0,1-5.7,1.29,13.14,13.14,0,0,1-6-1.77c-1.83-1.06-2.88-2.29-3.17-3.7s.57-2.66,2.57-3.77l.12,0,2.74,1.58c-1.4.81-2.06,1.62-2,2.43s.69,1.56,1.89,2.25a6.77,6.77,0,0,0,3.4.93A6.28,6.28,0,0,0,435.86,409.2Z"/><path class="cls-54" d="M451.15,418c1-.56,1.48-1.17,1.55-1.84a3.86,3.86,0,0,0-1.23-2.58,7,7,0,0,1-2.19-3.92q-.15-1.71,2.19-3.06a10.38,10.38,0,0,1,5.67-1.28,12.76,12.76,0,0,1,6,1.69c1.9,1.09,2.83,2.32,2.8,3.67s-.91,2.51-2.62,3.46l-.11,0-2.74-1.59a3.5,3.5,0,0,0,2-2.2c.13-.78-.36-1.5-1.48-2.14a6.36,6.36,0,0,0-3.38-.88,6.53,6.53,0,0,0-3.24.87,2,2,0,0,0-1.25,1.79,5,5,0,0,0,1.45,2.71,5.83,5.83,0,0,1,1.89,3.82c0,1.14-.82,2.17-2.41,3.08a10.15,10.15,0,0,1-5.7,1.3,13.14,13.14,0,0,1-6-1.77c-1.83-1.06-2.88-2.29-3.17-3.7s.57-2.67,2.57-3.77l.11,0,2.75,1.58c-1.4.81-2.06,1.61-2,2.43s.69,1.55,1.89,2.24a6.77,6.77,0,0,0,3.39.94A6.41,6.41,0,0,0,451.15,418Z"/><path class="cls-54" d="M494.71,348.38l-6.56,3.79L486,350.93l15.2-8.77L506,344.9c1.45.84,2.2,1.7,2.24,2.59s-.62,1.74-2,2.54a7.18,7.18,0,0,1-2.63.88,8.85,8.85,0,0,1-3-.12,1.5,1.5,0,0,1,.34,1.72,4.32,4.32,0,0,1-1.78,1.61l-1.32.77a5.88,5.88,0,0,0-1.16.83,1.18,1.18,0,0,0-.46.83l-.24.14-2.2-1.27c0-.27.19-.56.58-.87a12.23,12.23,0,0,1,1.38-.9l1.28-.75q1.28-.73,1.44-1.5c.1-.51-.18-1-.86-1.35Zm1.61-.93,2.52,1.45a4.7,4.7,0,0,0,2.6.7,5.51,5.51,0,0,0,2.59-.78c.87-.5,1.35-1,1.43-1.52s-.28-1-1.09-1.47l-2.63-1.51Z"/><path class="cls-54" d="M522.94,354.69l-10.54,6.09a9.33,9.33,0,0,1-5,1.3,10,10,0,0,1-4.83-1.32c-1.44-.84-2.19-1.75-2.23-2.75s.71-2,2.29-2.87l10.54-6.08,2.11,1.22-10.54,6.08c-1.09.63-1.66,1.25-1.72,1.85s.33,1.14,1.16,1.62a5.51,5.51,0,0,0,2.85.73,6.79,6.79,0,0,0,3.23-1l10.54-6.09Z"/><path class="cls-54" d="M510.42,365l15.21-8.79,4.27,2.47c1.45.83,2.23,1.68,2.36,2.54s-.49,1.69-1.86,2.47a6.14,6.14,0,0,1-2.47.79,7.46,7.46,0,0,1-2.74-.18,1.63,1.63,0,0,1,.61,1.85,3.52,3.52,0,0,1-1.72,1.76,8.2,8.2,0,0,1-4.39,1.16,9,9,0,0,1-4.4-1.26Zm9.23-2.87-5.48,3.17,2.73,1.58a4.55,4.55,0,0,0,2.44.61,5.54,5.54,0,0,0,2.61-.8,3.07,3.07,0,0,0,1.52-1.48c.15-.49-.14-.95-.86-1.37Zm1.53-.88,2.34,1.36a4.31,4.31,0,0,0,2.28.58,5,5,0,0,0,2.44-.71c.84-.48,1.26-1,1.26-1.45s-.4-1-1.21-1.42l-2.13-1.23Z"/><path class="cls-54" d="M533.73,369.45l.07,0L544.32,367l2.36,1.37-14.24,3L527,374.58l-2.12-1.23,5.61-3.23,5.15-8.12,2.39,1.38Z"/></g><g class="cls-55"><path class="cls-56" d="M445.53,51.91a15.1,15.1,0,0,1-3.83-5,12.78,12.78,0,0,1-1.14-5.26V38.45a6.21,6.21,0,0,0-.6-2.78,4.52,4.52,0,0,0-1.84-1.94V30.55c.83.48,1.44.54,1.84.2a2.78,2.78,0,0,0,.6-2.12V25.42a5.69,5.69,0,0,1,1.14-3.94c.76-.82,2-1,3.83-.55l.77,2.93a1.4,1.4,0,0,0-1.65.79,6.52,6.52,0,0,0-.49,2.85v3.21a4.59,4.59,0,0,1-.61,2.57,2.09,2.09,0,0,1-1.86.92,10.35,10.35,0,0,1,1.86,3.09,9.11,9.11,0,0,1,.61,3.24v3.22a11,11,0,0,0,.49,3.4,6.51,6.51,0,0,0,1.65,2.71Z"/><path class="cls-56" d="M515.89,87.11a1.41,1.41,0,0,0,1.65-.8,6.49,6.49,0,0,0,.49-2.85V80.25a4.41,4.41,0,0,1,.63-2.55,2.13,2.13,0,0,1,1.93-.86,10.25,10.25,0,0,1-1.93-3.1,9.21,9.21,0,0,1-.63-3.31V67.22a11.1,11.1,0,0,0-.49-3.41,6.54,6.54,0,0,0-1.65-2.7l.77-2a15.13,15.13,0,0,1,3.82,5,12.6,12.6,0,0,1,1.15,5.26v3.21a6.38,6.38,0,0,0,.59,2.81,4.62,4.62,0,0,0,1.86,1.94v3.18q-1.26-.73-1.86-.21a2.81,2.81,0,0,0-.59,2.1v3.21a5.67,5.67,0,0,1-1.15,3.95c-.76.83-2,1-3.82.57Z"/></g><g class="cls-57"><path class="cls-58" d="M353.33,405.54a37,37,0,0,1-18.45-4.45L139.56,288.32c-6.73-3.88-10.58-10-10.58-16.86,0-7.48,4.64-14.46,12.74-19.13l110.85-64a45.32,45.32,0,0,1,22.4-5.7,36.93,36.93,0,0,1,18.44,4.45L488.73,299.85c6.73,3.88,10.59,10,10.59,16.86,0,7.48-4.65,14.46-12.75,19.13l-110.85,64A45.42,45.42,0,0,1,353.33,405.54Z"/><path class="cls-59" d="M253.06,189.17a44.41,44.41,0,0,1,22.33-5.53,42.28,42.28,0,0,1,9.15,1.12,36.59,36.59,0,0,1,9.13,3.59L488.25,300.69c6.69,3.87,10.18,10,9.77,16.65a19.34,19.34,0,0,1-1.17,5.38c-1.7,4.76-6.51,9.82-12,13L375.6,398.79a45.33,45.33,0,0,1-4.79,2.36,46.52,46.52,0,0,1-17.25,3.4,36.11,36.11,0,0,1-18.19-4.31L140.05,287.47c-6.71-3.87-10.18-10-9.74-16.67a19.65,19.65,0,0,1,.92-4.65c1.57-5,6.55-10.42,12.29-13.74Z"/><path class="cls-60" d="M253.55,190a43.46,43.46,0,0,1,22.27-5.38,42.48,42.48,0,0,1,9.07,1.28,41.91,41.91,0,0,1,9,3.71L487.76,301.54c6.66,3.85,9.79,9.94,9,16.43a21.6,21.6,0,0,1-1.44,5.13c-1.66,4.23-7.2,9.61-12.13,12.46L375.47,397.73a49.1,49.1,0,0,1-4.7,2.36,45.74,45.74,0,0,1-17,3.47c-6.81.08-13.07-1.35-17.94-4.16L140.54,286.63c-6.7-3.87-9.79-10-8.9-16.5a22,22,0,0,1,1.18-4.43c1.55-4.48,7.34-10.22,12.5-13.2Z"/><path class="cls-61" d="M254,190.87a41.48,41.48,0,0,1,31.2-3.79,48.23,48.23,0,0,1,8.93,3.83l193.1,111.48c6.63,3.83,9.41,9.89,8.17,16.21a24.29,24.29,0,0,1-1.72,4.88c-1.59,3.71-7.89,9.4-12.26,11.93L375.34,396.68c-1.12.64-3.39,1.82-4.62,2.34A45.09,45.09,0,0,1,354,402.58c-6.7.11-12.91-1.27-17.69-4L141,285.78c-6.68-3.85-9.41-10-8.07-16.32a28.69,28.69,0,0,1,1.44-4.21c1.52-3.94,8.13-10,12.72-12.66Z"/><path class="cls-62" d="M254.52,191.71a41.63,41.63,0,0,1,22.14-5.05,40.25,40.25,0,0,1,8.93,1.59,57.2,57.2,0,0,1,8.84,3.93L486.78,303.23c6.6,3.81,9,9.84,7.37,16a30.28,30.28,0,0,1-2,4.64c-1.5,3.19-8.58,9.19-12.41,11.4L375.21,395.63c-1,.56-3.46,1.87-4.54,2.33a44.42,44.42,0,0,1-16.39,3.63c-6.59.15-12.74-1.17-17.44-3.89L141.51,284.93c-6.66-3.84-9-9.94-7.22-16.13a37.72,37.72,0,0,1,1.7-4c1.45-3.4,8.92-9.8,12.93-12.12Z"/><path class="cls-63" d="M255,192.56a38.68,38.68,0,0,1,30.93-3.15,70,70,0,0,1,8.74,4.05L486.29,304.08c6.57,3.79,8.69,9.78,6.57,15.78a39.16,39.16,0,0,1-2.27,4.39c-1.38,2.69-9.26,9-12.54,10.87l-103,59.45c-.84.48-3.54,1.93-4.45,2.33a44,44,0,0,1-16.12,3.71c-6.47.18-12.57-1.09-17.18-3.75L142,284.09c-6.64-3.84-8.68-9.91-6.38-16,.49-1.28,1.32-2.44,2-3.78,1.35-2.87,9.7-9.59,13.14-11.58Z"/><path class="cls-64" d="M255.5,193.41a37.48,37.48,0,0,1,30.79-2.84,92.19,92.19,0,0,1,8.65,4.16L485.8,304.93c6.54,3.77,8.35,9.73,5.77,15.57a17.26,17.26,0,0,1-2.54,4.13c-.78,2.4-9.95,8.77-12.69,10.35L375,393.52c-.7.4-3.61,2-4.37,2.32a43,43,0,0,1-15.83,3.78c-6.37.23-12.4-1-16.94-3.61L142.49,283.24c-6.62-3.82-8.34-9.89-5.54-15.77a17.69,17.69,0,0,1,2.21-3.58c.71-2.54,10.49-9.37,13.36-11Z"/><path class="cls-65" d="M256,194.25a39,39,0,0,1,21.94-4.58,39.54,39.54,0,0,1,8.71,2.07c1.2.38,7.56,3.7,8.55,4.27L485.31,305.77c6.51,3.76,8,9.69,5,15.36a17.08,17.08,0,0,1-2.81,3.88c-.62,1.92-10.63,8.56-12.82,9.83l-99.82,57.62c-.56.33-3.68,2-4.29,2.32A42.58,42.58,0,0,1,355,398.64c-6.26.26-12.24-.91-16.69-3.48L143,282.4c-6.61-3.82-8-9.88-4.7-15.6a17.53,17.53,0,0,1,2.47-3.36c.56-2,11.28-9.17,13.58-10.49Z"/><path class="cls-66" d="M256.48,195.1a38,38,0,0,1,21.88-4.42A39,39,0,0,1,287,192.9c.9.3,7.71,3.95,8.46,4.38L484.82,306.62c6.48,3.74,7.71,9.65,4.16,15.14a17.61,17.61,0,0,1-3.09,3.63c-.46,1.44-11.32,8.35-13,9.3l-98.24,56.72c-.41.24-3.75,2.1-4.2,2.31a41.79,41.79,0,0,1-15.26,3.93c-6.15.3-12.07-.81-16.44-3.33L143.47,281.55c-6.59-3.81-7.71-9.87-3.86-15.42a17.79,17.79,0,0,1,2.73-3.14c.42-1.52,12.06-9,13.79-10Z"/><path class="cls-67" d="M257,195.94a37.28,37.28,0,0,1,21.81-4.25,38.1,38.1,0,0,1,8.56,2.37c.59.21,7.87,4.21,8.36,4.5L484.34,307.47c6.44,3.71,7.4,9.63,3.35,14.92a18.16,18.16,0,0,1-3.36,3.38c-.31,1-12,8.15-13.1,8.78l-96.66,55.8c-.28.17-3.83,2.16-4.13,2.3a41,41,0,0,1-15,4c-6.05.34-11.91-.72-16.19-3.19L144,280.7c-6.58-3.79-7.42-9.87-3-15.23a18.43,18.43,0,0,1,3-2.93c.28-1,12.86-8.75,14-9.41Z"/><path class="cls-68" d="M257.46,196.79a36.41,36.41,0,0,1,21.75-4.1,37.76,37.76,0,0,1,8.48,2.54c.29.11,8,4.46,8.27,4.6L483.85,308.31c6.41,3.7,7.11,9.63,2.55,14.71a19.06,19.06,0,0,1-3.64,3.13c-.15.48-12.69,7.94-13.24,8.25l-95.08,54.9c-.14.08-3.89,2.22-4,2.29a40.69,40.69,0,0,1-14.7,4.09c-5.93.37-11.74-.63-15.93-3.05L144.45,279.86c-6.56-3.79-7.13-9.91-2.18-15.06a19.44,19.44,0,0,1,3.24-2.71c.14-.51,13.64-8.54,14.22-8.87Z"/><path d="M340.26,391.78,144.94,279c-7.72-4.45-6.75-12.23,2.16-17.37l110.84-64c8.91-5.14,22.38-5.7,30.1-1.25L483.36,309.16c7.71,4.45,6.74,12.23-2.16,17.37l-110.85,64C361.44,395.67,348,396.23,340.26,391.78Z"/></g><path class="cls-69" d="M340.26,391.6,144.94,278.83c-3.44-2-5.16-4.63-5.21-7.41v-9.67c.06-3.38,2.56,2.48,7.37-.29l110.84-64c8.91-5.14,22.38-5.7,30.1-1.25L483.36,309c2.57,1.49,4.44-4.82,5.11-2.82.22.67.08,9.52.09,10.22.08,3.45-2.42,7.12-7.36,10l-110.85,64C361.44,395.49,348,396.05,340.26,391.6Z"/><path class="cls-70" d="M340.26,382.1,144.94,269.33c-7.72-4.45-6.75-12.23,2.16-17.37l110.84-64c8.91-5.14,22.38-5.7,30.1-1.25L483.36,299.48c7.71,4.46,6.74,12.23-2.16,17.38l-110.85,64C361.44,386,348,386.56,340.26,382.1Z"/><path class="cls-71" d="M488.55,321.57c0,3.42-2.48,7-7.35,9.83l-110.85,64c-8.91,5.14-22.38,5.7-30.09,1.25L144.94,283.88c-3.73-2.15-5.41-5.09-5.17-8.12a3.71,3.71,0,0,0,0,.53V286c.06,2.78,1.77,5.42,5.21,7.41L340.26,406.14c7.71,4.46,21.18,3.9,30.09-1.24l110.85-64c4.94-2.86,7.44-6.52,7.36-10C488.55,330.34,488.65,324,488.55,321.57Z"/><path class="cls-72" d="M353.33,381.21a22.79,22.79,0,0,1-11.12-2.48L146.89,266c-1.22-.71-3.26-2.18-3.26-4.17s2-4.49,5.42-6.45l110.85-64A31,31,0,0,1,275,187.61a22.85,22.85,0,0,1,11.12,2.48L481.41,302.86c1.21.7,3.25,2.18,3.25,4.17s-2,4.49-5.41,6.45l-110.85,64A31,31,0,0,1,353.33,381.21Z"/><path class="cls-73" d="M481.2,315.24l-110.85,64c-8.91,5.15-22.38,5.7-30.09,1.25L144.94,267.72c-3.2-1.85-4.89-4.27-5.15-6.83-.4,3.15,1.28,6.21,5.15,8.44L340.26,382.1c7.71,4.46,21.18,3.9,30.09-1.24l110.85-64c5.21-3,7.68-6.92,7.31-10.54C488.11,309.46,485.64,312.68,481.2,315.24Z"/><ellipse class="cls-74" cx="285.26" cy="237.49" rx="48.76" ry="28.79" transform="translate(-61.73 105.7) rotate(-18.98)"/><path class="cls-75" d="M293.15,336l-60.3-34.71c-2.75-1.59-2.41-4.36.77-6.2l30.55-17.76c3.17-1.83,8-2,10.73-.44l60.3,34.71c2.75,1.59,2.4,4.37-.77,6.2l-30.55,17.76C300.7,337.34,295.9,337.54,293.15,336Z"/><path class="cls-76" d="M480.26,298,292.07,189.27c-7.29-4.21-13.19-15.49-13.19-25.21V16.43c0-9.72,5.9-14.18,13.19-10L480.26,115.17c7.29,4.21,13.2,15.49,13.2,25.21V288C493.46,297.73,487.55,302.19,480.26,298Z"/><path class="cls-77" d="M485.5,296.65a7.83,7.83,0,0,1-3.78-1.19L293.53,186.74c-6.36-3.67-11.74-14.06-11.74-22.68V16.43c0-4,1.32-8.64,5-8.64A7.8,7.8,0,0,1,290.61,9l188.2,108.71c6.36,3.68,11.73,14.07,11.73,22.69V288C490.54,292,489.22,296.65,485.5,296.65Z"/><path class="cls-78" d="M482,290.4,295.78,182.85c-5.87-3.72-9.49-11.17-9.49-18.79V15.71a2.33,2.33,0,0,1,3.52-2l.41.24L476.56,121.59c7,4,9.49,11.17,9.49,18.79v148a2.53,2.53,0,0,1-3.78,2.19Z"/><path class="cls-79" d="M476.56,121.59,290.22,13.94l-.41-.24a2.33,2.33,0,0,0-3.52,2V164.06c0,7.62,3.62,15.07,9.49,18.79L482,290.4l.31.17a2.53,2.53,0,0,0,3.78-2.19v-148C486.05,132.76,483.54,125.61,476.56,121.59Zm8,166.79a1,1,0,0,1-1,1.05,1.1,1.1,0,0,1-.52-.14L296.52,181.57c-5.3-3.37-8.75-10.25-8.75-17.51V15.71a.86.86,0,0,1,.86-.86.85.85,0,0,1,.43.12l186.76,107.9c7.23,4.17,8.74,11.82,8.74,17.51Z"/><path class="cls-80" d="M484,113.19,295.81,4.47c-2.88-1.67-5.55-2-7.72-1.14-.28.11-3.95,2.07-4.21,2.21h0c2.25-1.09,5.1-.89,8.21.9L480.26,115.17c7.29,4.21,13.2,15.49,13.2,25.21V288c0,6.06-2.3,10.08-5.81,11.22a2.11,2.11,0,0,0,1.16-.39c.17-.1,4.16-2.35,4.32-2.46,2.5-1.76,4.07-5.36,4.07-10.35V138.39C497.2,128.68,491.29,117.39,484,113.19Z"/><path class="cls-81" d="M480.9,114.85,292.7,6.14c-3-1.73-5.73-2-7.94-1a9.76,9.76,0,0,1,6.36,1.49L479.31,115.33c7.29,4.21,13.2,15.49,13.2,25.21V288.17c0,5.73-2.07,9.61-5.25,11,4.07-.65,6.83-4.83,6.83-11.46V140.06C494.09,130.35,488.18,119.06,480.9,114.85Z"/><path class="cls-82" d="M361.23,309.9l-95.69-55.13c-3.17-1.83-2.77-5,.89-7.14l31.77-18.71c3.65-2.11,9.19-2.34,12.35-.51l96.24,54.85c3.17,1.83,2.77,5-.88,7.13l-32.32,19C369.93,311.49,364.39,311.72,361.23,309.9Z"/><path class="cls-83" d="M320.93,237.88l-1.21-3.4h0a3.44,3.44,0,0,0-1.81-2.19l-8.79-5.08a10,10,0,0,0-9,0l-8.74,5a4.07,4.07,0,0,0-1.83,2.45l-1.19,3.14c-.71,1.75-.51,3.24,1.57,4.44l9.78,5.64a11.06,11.06,0,0,0,10,0l9.71-5.61C321.48,241.13,321.74,239.78,320.93,237.88Z"/><path class="cls-84" d="M291.87,237.35l8.47,4.89a9.59,9.59,0,0,0,8.68,0l8.42-4.86c2.39-1.38,2.38-3.62,0-5l-8.47-4.89a9.59,9.59,0,0,0-8.68,0l-8.42,4.86C289.45,233.72,289.46,236,291.87,237.35Z"/><path class="cls-85" d="M342.35,249.71l-1.21-3.41h0a3.44,3.44,0,0,0-1.81-2.19L330.53,239a10,10,0,0,0-9,0l-8.74,5a4,4,0,0,0-1.83,2.44l-1.19,3.14c-.71,1.75-.51,3.24,1.57,4.44l9.78,5.65a11.06,11.06,0,0,0,10,0l9.71-5.6C342.9,253,343.17,251.61,342.35,249.71Z"/><path class="cls-86" d="M313.29,249.18l8.47,4.89a9.59,9.59,0,0,0,8.68,0l8.42-4.86c2.39-1.38,2.38-3.62,0-5l-8.47-4.89a9.59,9.59,0,0,0-8.68,0l-8.42,4.86C310.87,245.54,310.88,247.79,313.29,249.18Z"/><path class="cls-87" d="M363.77,261.53l-1.21-3.41h0a3.43,3.43,0,0,0-1.81-2.18L352,250.86a10,10,0,0,0-9,0l-8.74,5a4.08,4.08,0,0,0-1.83,2.44l-1.19,3.14c-.71,1.76-.51,3.24,1.57,4.45l9.78,5.64a11.09,11.09,0,0,0,10,0l9.71-5.61C364.32,264.77,364.59,263.43,363.77,261.53Z"/><path class="cls-88" d="M334.71,261l8.47,4.89a9.59,9.59,0,0,0,8.68,0l8.42-4.86c2.39-1.38,2.38-3.63,0-5l-8.47-4.89a9.59,9.59,0,0,0-8.68,0L334.68,256C332.29,257.37,332.3,259.61,334.71,261Z"/><path class="cls-89" d="M385.19,273.35,384,270h0a3.42,3.42,0,0,0-1.81-2.19l-8.79-5.08a10,10,0,0,0-9,0l-8.74,5a4.08,4.08,0,0,0-1.83,2.44l-1.19,3.15c-.71,1.75-.51,3.24,1.57,4.44l9.78,5.64a11.06,11.06,0,0,0,10,0l9.71-5.61C385.74,276.6,386,275.25,385.19,273.35Z"/><path class="cls-90" d="M356.13,272.82l8.47,4.89a9.59,9.59,0,0,0,8.68,0l8.42-4.86c2.39-1.38,2.38-3.63,0-5L373.2,263a9.62,9.62,0,0,0-8.68,0l-8.42,4.86C353.71,269.19,353.72,271.43,356.13,272.82Z"/><path class="cls-91" d="M302.09,233.36l-.25-.1-.08,0,.19.15,4.16,5.3-2.79,1.61-5.39-8,2.23-1.29,13.93,3.11-2.77,1.61Z"/><path class="cls-91" d="M329.08,249.63A9.24,9.24,0,0,1,324.8,251a6.86,6.86,0,0,1-3.8-.88c-1.13-.66-1.64-1.39-1.55-2.21s.87-1.64,2.31-2.47L324.3,244a9.28,9.28,0,0,1,4.27-1.34,6.83,6.83,0,0,1,3.82.89c1.13.64,1.63,1.38,1.53,2.2s-.87,1.64-2.31,2.47Zm1-2.7c.9-.52,1.42-1,1.55-1.43s-.1-.81-.68-1.15a3.2,3.2,0,0,0-2-.39,6.08,6.08,0,0,0-2.47.9l-3.09,1.78c-.91.52-1.43,1-1.56,1.43s.1.82.69,1.16a3.16,3.16,0,0,0,2,.39,6.34,6.34,0,0,0,2.49-.91Z"/><path class="cls-91" d="M343.42,262.42l-1.86-1.08,9.33-5.38-2.27-1.31,1.36-.79L354.5,256Z"/><path class="cls-91" d="M367.48,266.61l2.74-1.58,5.71,8.22-2.24,1.29-14.24-3.3,2.74-1.58,9.59,2.54.23.1.08,0-.18-.16Z"/><path class="cls-92" d="M362.25,285.31,361,281.9h0a3.4,3.4,0,0,0-1.81-2.18L288.94,239a10,10,0,0,0-9,0l-8.74,5a4,4,0,0,0-1.83,2.44l-1.19,3.14c-.71,1.75-.51,3.24,1.57,4.44L341,295.34a11.11,11.11,0,0,0,10,0l9.71-5.61C362.8,288.55,363.06,287.21,362.25,285.31Z"/><path class="cls-93" d="M271.7,249.18l70,40.49a9.56,9.56,0,0,0,8.68,0l8.42-4.85c2.39-1.39,2.38-3.63,0-5l-70-40.49a9.59,9.59,0,0,0-8.68,0l-8.42,4.86C269.28,245.54,269.29,247.79,271.7,249.18Z"/><path class="cls-94" d="M406.61,285l-1.21-3.41h0a3.44,3.44,0,0,0-1.81-2.19l-8.79-5.07a10,10,0,0,0-9,0L354.51,292.2a4.11,4.11,0,0,0-1.83,2.45l-1.19,3.14c-.71,1.75-.51,3.24,1.57,4.44l9.78,5.64a11,11,0,0,0,10,0l32.23-18.41C407.16,288.28,407.43,286.93,406.61,285Z"/><path class="cls-95" d="M355,297.32l8.47,4.89a9.62,9.62,0,0,0,8.68,0l30.94-17.67c2.39-1.38,2.38-3.62,0-5l-8.47-4.89a9.59,9.59,0,0,0-8.68,0L355,292.3C352.61,293.68,352.62,295.93,355,297.32Z"/><path class="cls-91" d="M374.87,286l-1.73-1-1.24.71,2,1.16-.53.3-2.66-1.53,3.92-2.27,2.64,1.53-.52.3-2-1.14-1.1.64,1.72,1Z"/><path class="cls-91" d="M377.36,286.15l-.38.26a2.41,2.41,0,0,1,.71,0,1.63,1.63,0,0,1,.62.21c.3.18.45.37.43.57s-.21.42-.6.65l-1.83,1-.66-.38,1.83-1c.22-.13.33-.24.33-.35s-.09-.21-.28-.32a1.22,1.22,0,0,0-.43-.15,1.93,1.93,0,0,0-.48,0l-2.12,1.22-.65-.38,2.91-1.68Z"/><path class="cls-91" d="M381.43,287.68l-.7.41.52.3-.48.28-.53-.3-1.61.93c-.12.07-.18.13-.18.19s.05.12.13.17l.12,0,.12,0-.41.32a1.8,1.8,0,0,1-.27-.07,2.1,2.1,0,0,1-.26-.13q-.37-.21-.36-.45c0-.16.15-.33.45-.5l1.61-.93-.44-.26.48-.28.45.26.71-.41Z"/><path class="cls-91" d="M380.12,291.17c-.41-.24-.61-.51-.59-.81a1.13,1.13,0,0,1,.67-.81l.11-.06a3,3,0,0,1,1.42-.4,2.46,2.46,0,0,1,1.34.29c.4.23.58.47.55.73s-.24.5-.64.74l-.38.22L380.77,290h0a.66.66,0,0,0-.36.44c0,.16.08.3.3.43a2.59,2.59,0,0,0,.52.23,4.16,4.16,0,0,0,.55.1l-.22.37a3.55,3.55,0,0,1-.68-.11A3.15,3.15,0,0,1,380.12,291.17Zm2.42-1.49a1.1,1.1,0,0,0-.59-.12,2.06,2.06,0,0,0-.68.17h0l1.16.68.07,0a.56.56,0,0,0,.31-.35C382.82,289.91,382.74,289.79,382.54,289.68Z"/><path class="cls-91" d="M385.64,291.61l-.27-.17a1.19,1.19,0,0,0-.4-.14,1.26,1.26,0,0,0-.43,0l-2,1.17-.66-.38,2.91-1.68.6.34L385,291a2.35,2.35,0,0,1,.64,0,1.43,1.43,0,0,1,.53.16l.1.07.07.07Z"/><polygon class="cls-96" points="463.75 233.88 411.8 203.88 411.8 176.32 463.75 206.31 463.75 233.88"/><polygon class="cls-97" points="339.73 162.73 287.77 132.74 287.77 105.17 339.73 135.17 339.73 162.73"/><path class="cls-98" d="M407.11,111.78,364.3,87.07c-3.65-2.11-6.61-7.76-6.61-12.63h0c0-4.87,3-7.11,6.61-5l42.81,24.72c3.65,2.1,6.61,7.76,6.61,12.63h0C413.72,111.65,410.76,113.89,407.11,111.78Z"/><path class="cls-99" d="M404.87,235.36l-42.8-24.72c-3.65-2.1-6.61-7.76-6.61-12.63h0c0-4.86,3-7.1,6.61-5l42.8,24.71c3.66,2.11,6.62,7.76,6.62,12.63h0C411.49,235.23,408.53,237.47,404.87,235.36Z"/><polygon class="cls-100" points="440.69 184.69 440.69 170.23 410.24 152.89 409.56 154.08 439.31 171.03 439.31 183.89 436.34 182.17 439.69 190.79 443.04 186.04 440.69 184.69"/><polygon class="cls-100" points="384.9 116.12 388.25 111.38 385.63 109.86 385.63 101.79 384.25 101.37 384.25 109.06 381.55 107.51 384.9 116.12"/><polygon class="cls-100" points="331.84 129.11 335.19 124.36 332.79 122.97 332.79 109.78 357.32 123.93 358.01 122.73 331.41 107.39 331.41 122.18 328.49 120.49 331.84 129.11"/><polygon class="cls-100" points="435.87 223.51 329.08 161.95 329.08 157.21 327.7 156.8 327.7 162.75 384.25 195.35 384.25 198.42 381.55 196.86 384.9 205.48 388.25 200.73 385.63 199.21 385.63 196.14 436.21 225.3 437.25 225.9 437.25 219.32 435.87 218.91 435.87 223.51"/><polygon class="cls-101" points="384.73 160.32 358.45 123.44 384.73 116.92 411.02 153.8 384.73 160.32"/><polygon class="cls-102" points="411.8 176.32 411.8 177.41 463.06 207 463.06 233.48 463.75 233.88 463.75 206.31 411.8 176.32"/><polygon class="cls-103" points="287.77 105.17 287.77 106.26 339.04 135.86 339.04 162.33 339.73 162.73 339.73 135.17 287.77 105.17"/><path class="cls-104" d="M407.11,94.16,364.3,69.44c-2.2-1.27-4.15-1-5.35.57,1.2-.9,2.84-.93,4.66.12l42.81,24.72c3.65,2.1,6.61,7.76,6.61,12.63a7.08,7.08,0,0,1-1.26,4.43c1.2-.9,2-2.68,2-5.12C413.72,101.92,410.76,96.26,407.11,94.16Z"/><path class="cls-105" d="M404.87,217.73,362.07,193c-2.21-1.28-4.15-1-5.35.56,1.19-.9,2.84-.93,4.66.13l42.8,24.71c3.66,2.11,6.62,7.76,6.62,12.63a7.06,7.06,0,0,1-1.26,4.43c1.2-.9,1.95-2.68,1.95-5.12C411.49,225.49,408.53,219.84,404.87,217.73Z"/><polygon class="cls-106" points="384.04 117.61 410.01 154.04 411.02 153.8 384.73 116.92 358.45 123.44 358.76 123.88 384.04 117.61"/><g class="cls-5"><polygon class="cls-107" points="315.16 128.95 321.07 132.33 321.07 130.59 315.16 127.21 315.16 128.95"/><polygon class="cls-107" points="317.63 143.24 311.76 139.85 311.76 141.59 317.63 144.99 317.63 143.24"/><polygon class="cls-107" points="317.32 133.94 317.32 132.2 310.76 128.48 310.76 130.22 317.32 133.94"/><polygon class="cls-107" points="310.43 135.37 310.43 137.12 313.76 139.04 313.76 137.3 310.43 135.37"/><polygon class="cls-107" points="305.39 137.97 305.39 136.23 299.97 133.16 299.97 134.91 305.39 137.97"/><polygon class="cls-107" points="320.15 140.99 315.5 138.3 315.5 140.05 320.15 142.73 320.15 140.99"/><polygon class="cls-107" points="313.47 133.6 313.47 135.35 316.23 136.92 316.23 135.18 313.47 133.6"/><polygon class="cls-107" points="322.81 131.59 322.81 133.33 324.31 134.2 324.31 132.46 322.81 131.59"/><polygon class="cls-107" points="311.73 134.35 311.73 132.61 306.12 129.41 306.12 131.16 311.73 134.35"/><polygon class="cls-107" points="319.06 133.2 319.06 134.94 327.33 139.68 327.33 137.93 319.06 133.2"/><polygon class="cls-107" points="308.71 136.13 308.71 134.38 301.67 130.44 301.67 132.18 308.71 136.13"/><polygon class="cls-107" points="303.36 120.45 303.36 122.19 308.88 125.35 308.88 123.61 303.36 120.45"/><polygon class="cls-107" points="313.42 126.21 310.62 124.61 310.62 126.35 313.42 127.95 313.42 126.21"/><polygon class="cls-107" points="310.05 138.86 307.13 137.21 307.13 138.96 310.05 140.6 310.05 138.86"/><polygon class="cls-107" points="325.78 145.99 333.31 150.36 333.31 148.61 325.78 144.24 325.78 145.99"/><polygon class="cls-107" points="298.23 132.18 295.57 130.65 295.57 132.39 298.23 133.92 298.23 132.18"/><polygon class="cls-107" points="290.13 113.13 290.13 114.87 301.96 121.61 301.96 119.87 290.13 113.13"/><polygon class="cls-107" points="327.52 143.37 330.31 144.99 330.31 143.24 327.52 141.62 327.52 143.37"/><polygon class="cls-107" points="329.07 140.67 337.07 145.37 337.07 143.63 329.07 138.93 329.07 140.67"/><polygon class="cls-107" points="317.97 137.91 325.81 142.38 325.81 140.63 317.97 136.17 317.97 137.91"/><polygon class="cls-107" points="326.05 133.45 326.05 135.2 332.29 138.77 332.29 137.03 326.05 133.45"/><polygon class="cls-107" points="299.93 129.47 295.57 127.03 295.57 128.77 299.93 131.21 299.93 129.47"/><polygon class="cls-107" points="324.07 143.25 321.89 141.99 321.89 143.73 324.07 145 324.07 143.25"/><polygon class="cls-107" points="304.38 128.42 295.57 123.41 295.57 125.15 304.38 130.16 304.38 128.42"/><polygon class="cls-107" points="309.02 127.48 295.57 119.78 295.57 121.53 309.02 129.23 309.02 127.48"/></g><g class="cls-108"><path class="cls-91" d="M382.23,131.21l-2.1-1.2V127.9l2.1,1.21Zm0,13.33-2.1-1.21v-10.7l2.1,1.21Z"/><path class="cls-91" d="M385.25,146.29v-8.93l-1.42-.82v-1.78l1.42.82v-1.24c0-1.18.28-1.93.85-2.25s1.34-.18,2.35.4c.2.12.41.26.62.41l.69.56-.21,1.73c-.12-.09-.24-.19-.39-.29a5,5,0,0,0-.45-.29c-.45-.26-.79-.31-1-.14s-.34.52-.34,1.08v1.24l1.9,1.1v1.78l-1.9-1.1v8.93Z"/></g><path class="cls-109" d="M507.4,252.23l4.57,2.64v-10.5l-4.57-2.64Zm7.24,4.18,4.57,2.64V239.81l-4.57-2.64Zm7.24-23.81v28l4.58,2.64v-28Z"/><path class="cls-109" d="M271.84,29.57a10.83,10.83,0,0,0-.09-1.26l2.11-.27a18.27,18.27,0,0,0-1-3.2l-2.4-.73a17,17,0,0,0-1.5-2.58l.58-2.43a19.2,19.2,0,0,0-2.31-2.44L266,18.34a10.31,10.31,0,0,0-1.06-.71,7.86,7.86,0,0,0-1.06-.51l-1.29-3.18a6.72,6.72,0,0,0-2.31-.23l.58,3.1a3.36,3.36,0,0,0-1.5.85l-2.41-2.05a6.39,6.39,0,0,0-1,2.09l2.12,2.71a7.22,7.22,0,0,0-.09,1.17,9.11,9.11,0,0,0,.09,1.26l-2.12.27a19.45,19.45,0,0,0,1,3.2l2.41.73a17,17,0,0,0,1.5,2.58l-.58,2.43a19.79,19.79,0,0,0,2.31,2.43l1.29-1.67a11.53,11.53,0,0,0,1.06.71A8.48,8.48,0,0,0,266,34l1.3,3.17a6.51,6.51,0,0,0,2.31.24l-.58-3.1a3.36,3.36,0,0,0,1.5-.85l2.4,2a6.16,6.16,0,0,0,1-2.1l-2.11-2.7A8.55,8.55,0,0,0,271.84,29.57Zm-6.93-.8a6.16,6.16,0,0,1-2.78-4.8c0-1.76,1.25-2.47,2.78-1.59a6.14,6.14,0,0,1,2.79,4.8C267.7,28.94,266.45,29.65,264.91,28.77Z"/><g class="cls-55"><path class="cls-56" d="M237.37,154.58a.81.81,0,0,1-.27-.28.68.68,0,0,1-.11-.39v-1.73a.44.44,0,0,1,.11-.36.85.85,0,0,1,.37-.16l4.68-.89-4.68-6.29a4.08,4.08,0,0,1-.37-.58,1.1,1.1,0,0,1-.11-.52v-1.71c0-.15,0-.24.1-.28a.27.27,0,0,1,.28,0,1.34,1.34,0,0,1,.39.42l6.55,8.91a3.51,3.51,0,0,1,.43.71,1.46,1.46,0,0,1,.13.61v.53a.58.58,0,0,1-.14.45.69.69,0,0,1-.42.2l-6.55,1.36A.45.45,0,0,1,237.37,154.58Z"/><path class="cls-56" d="M234.4,155.94l-1.26-.72a1.19,1.19,0,0,1-.4-.37,2.09,2.09,0,0,1-.2-.44l-6.61-21.94a1.17,1.17,0,0,1,0-.26.28.28,0,0,1,.12-.27.29.29,0,0,1,.29,0l1.25.72a1.06,1.06,0,0,1,.39.37,2.13,2.13,0,0,1,.23.45l6.57,21.92a.75.75,0,0,1,0,.26.31.31,0,0,1-.11.27A.27.27,0,0,1,234.4,155.94Z"/><path class="cls-56" d="M223.32,146.47a1.23,1.23,0,0,1-.38-.4l-6.56-8.93a4,4,0,0,1-.42-.69,1.47,1.47,0,0,1-.14-.61v-.53a.72.72,0,0,1,.13-.46.79.79,0,0,1,.43-.22l6.56-1.34a.42.42,0,0,1,.38,0,.67.67,0,0,1,.27.28.73.73,0,0,1,.12.41v1.7a.48.48,0,0,1-.12.39.81.81,0,0,1-.36.16l-4.68.89,4.68,6.29a3.88,3.88,0,0,1,.36.58,1.06,1.06,0,0,1,.12.5v1.73c0,.13,0,.22-.12.25A.27.27,0,0,1,223.32,146.47Z"/></g><polygon class="cls-109" points="197.25 136.06 197.25 119.11 206.41 132.87 197.25 136.06 197.25 136.06"/><polygon class="cls-110" points="184.79 128.93 184.79 111.98 193.94 125.74 184.79 128.93 184.79 128.93"/><polygon class="cls-111" points="172.33 121.8 172.33 104.85 181.48 118.61 172.33 121.8 172.33 121.8"/><polygon class="cls-112" points="159.87 114.68 159.87 97.72 169.02 111.48 159.87 114.68 159.87 114.68"/><polygon class="cls-113" points="147.4 107.55 147.4 90.59 156.55 104.35 147.4 107.55 147.4 107.55"/><polygon class="cls-109" points="459.71 35.04 459.71 51.99 450.56 38.23 459.71 35.04 459.71 35.04"/><polygon class="cls-110" points="472.18 42.17 472.18 59.12 463.02 45.36 472.18 42.17 472.18 42.17"/><polygon class="cls-111" points="484.64 49.3 484.64 66.25 475.49 52.49 484.64 49.3 484.64 49.3"/><polygon class="cls-112" points="497.1 56.43 497.1 73.38 487.95 59.62 497.1 56.43 497.1 56.43"/><polygon class="cls-113" points="509.56 63.56 509.56 80.51 500.41 66.75 509.56 63.56 509.56 63.56"/><g class="cls-55"><polygon class="cls-110" points="106.81 313.74 112.97 317.3 115.95 315.58 109.79 312.02 106.81 313.74"/><polygon class="cls-109" points="111.41 311.09 117.57 314.64 120.88 312.74 114.72 309.18 111.41 311.09"/><polygon class="cls-114" points="97.61 319.06 103.77 322.61 106.1 321.27 99.94 317.71 97.61 319.06"/><polygon class="cls-113" points="94.48 320.88 100.65 324.44 101.84 323.85 95.68 320.29 94.48 320.88"/><polygon class="cls-115" points="102.21 316.4 108.37 319.96 111.03 318.43 104.86 314.87 102.21 316.4"/><polygon class="cls-116" points="110.93 305.14 127.67 314.81 130.82 303.32 110.93 305.14"/></g><polygon class="cls-117" points="535.36 166.03 586.23 195.4 586.23 222.39 535.36 193.02 535.36 166.03"/><polygon class="cls-118" points="536.03 193.6 519.36 170.22 536.03 166.08 552.7 189.46 536.03 193.6"/><polygon class="cls-119" points="527.77 118.1 578.64 147.47 578.64 159.6 527.77 130.23 527.77 118.1"/><path class="cls-120" d="M533.69,133.46l-29-16.74c-2.47-1.43-4.47-5.25-4.47-8.55h0c0-3.3,2-4.81,4.47-3.39l29,16.74c2.47,1.43,4.47,5.26,4.47,8.56h0C538.16,133.37,536.16,134.89,533.69,133.46Z"/></g></g></svg>