<svg id="Layer_1" data-name="Layer 1" xmlns="http://www.w3.org/2000/svg" viewBox="0 0 660 450">
  <defs>
    <style>
      .cls-1 {
        fill: #fff;
      }
    </style>
  </defs>
  <title>logo1</title>
  <g>
    <path class="cls-1" d="M10.28,175h17.6v93.4H10.28ZM18,251.45h29.8q6,0,9.35-2.92a10.38,10.38,0,0,0,3.31-8.19v-.19a11.63,11.63,0,0,0-1.48-6,9.5,9.5,0,0,0-4.34-3.82A16.17,16.17,0,0,0,47.79,229H18V212h29.8q5.46,0,8.45-2.76t3-7.77a8.66,8.66,0,0,0-3-7q-3-2.5-8.45-2.5H18V175H48.37a36.5,36.5,0,0,1,15.48,3,21.51,21.51,0,0,1,9.77,8.67A26.55,26.55,0,0,1,77,200.32,20.9,20.9,0,0,1,74.8,210a17.92,17.92,0,0,1-6.26,6.9,25.55,25.55,0,0,1-9.89,3.67,24.79,24.79,0,0,1,10.57,3.75,19,19,0,0,1,6.68,7.61,24.57,24.57,0,0,1,2.28,10.86V243a26.57,26.57,0,0,1-3.38,13.75,21.53,21.53,0,0,1-9.82,8.7,36.63,36.63,0,0,1-15.52,3H18Z"/>
    <path class="cls-1" d="M85.33,175h17.6v93.4H85.33Zm6.36,0H147.9v17H91.69Zm0,38.54h49.14v17H91.69Zm0,37.9H147.9v17H91.69Z"/>
    <path class="cls-1" d="M154.09,175h21.52l34.76,71.56-1.55,1.67V175h16.83v93.34H204l-34.63-70.47,1.54-1.67v72.14H154.09Z"/>
    <path class="cls-1" d="M328.23,216.19v18.24A38.5,38.5,0,0,1,324,252.77,29.78,29.78,0,0,1,312.11,265a35.84,35.84,0,0,1-17.86,4.34,38.33,38.33,0,0,1-18-4.08,29.27,29.27,0,0,1-12.08-11.53,34.12,34.12,0,0,1-4.27-17.28V208.93a38.32,38.32,0,0,1,4.21-18.31A29.76,29.76,0,0,1,276,178.38a35.81,35.81,0,0,1,17.86-4.33,34.79,34.79,0,0,1,15.42,3.43,32.07,32.07,0,0,1,11.79,9.74,35.81,35.81,0,0,1,6.39,14.58h-19a12.34,12.34,0,0,0-3.18-5.11,14.94,14.94,0,0,0-5.2-3.28,17.67,17.67,0,0,0-6.2-1.12,16.22,16.22,0,0,0-8.25,2.06,14,14,0,0,0-5.53,5.84,18.85,18.85,0,0,0-2,8.74v27.56a14.7,14.7,0,0,0,2,7.7,13.11,13.11,0,0,0,5.65,5.14,19,19,0,0,0,8.48,1.8,17,17,0,0,0,8.32-2,13.33,13.33,0,0,0,5.49-5.68,19,19,0,0,0,1.93-8.8v-1.54H295.85v-17Z"/>
    <path class="cls-1" d="M348.75,265.3a27.06,27.06,0,0,1-11.63-11.89q-4-7.8-4-18.79V175h17.6v60.06q0,8,4.3,12.47T367.18,252q7.9,0,12.24-4.43t4.34-12.47V175h17.6v59.61q0,11-4,18.79a27.19,27.19,0,0,1-11.69,11.89q-7.68,4.08-18.47,4.08T348.75,265.3Z"/>
    <path class="cls-1" d="M409.48,175h17.6v93.46h-17.6Zm7,38.92H449a8.55,8.55,0,0,0,4.76-1.34,8.79,8.79,0,0,0,3.18-3.86,14.84,14.84,0,0,0,1.19-5.78,14,14,0,0,0-1.13-5.78,8.79,8.79,0,0,0-3.18-3.86A8.59,8.59,0,0,0,449,191.9h-32.5V175H450.4A26,26,0,0,1,464,178.42a23.39,23.39,0,0,1,9.06,9.79,35.17,35.17,0,0,1,0,29.36,23.33,23.33,0,0,1-9.09,9.79,26,26,0,0,1-13.52,3.47H416.48Zm19.66,14.07L455,225l25.18,43.42H458.81Z"/>
    <path class="cls-1" d="M502.33,268.41H484.08V175h18.25Z"/>
    <path class="cls-1" d="M526,265.1A29.69,29.69,0,0,1,514,253a37.39,37.39,0,0,1-4.24-18.09V208.48A37.35,37.35,0,0,1,514,190.4a29.72,29.72,0,0,1,12-12.08,39.61,39.61,0,0,1,35.78,0,29.66,29.66,0,0,1,12,12.08A37.24,37.24,0,0,1,578,208.48v26.46A37.28,37.28,0,0,1,573.78,253a29.63,29.63,0,0,1-12,12.07,39.53,39.53,0,0,1-35.78,0Zm26.24-15.35a13.83,13.83,0,0,0,5.56-5.75,18.16,18.16,0,0,0,2-8.61V208a18.16,18.16,0,0,0-2-8.61,13.88,13.88,0,0,0-5.56-5.75,18.27,18.27,0,0,0-16.7,0,13.8,13.8,0,0,0-5.55,5.75,18.16,18.16,0,0,0-2,8.61v27.36a18.16,18.16,0,0,0,2,8.61,13.74,13.74,0,0,0,5.55,5.75,18.27,18.27,0,0,0,16.7,0Z"/>
    <path class="cls-1" d="M585.5,175H607l34.75,71.56-1.54,1.67V175h16.83v93.34H635.41l-34.62-70.47,1.54-1.67v72.14H585.5Z"/>
  </g>
</svg>
